<svg width="74" height="75" viewBox="0 0 74 75" fill="none" xmlns="http://www.w3.org/2000/svg">
<path d="M24.9787 74.9675C23.5376 74.8319 22.2586 74.3529 21.1318 73.5267C20.5913 73.1304 1.78152 54.0486 1.39083 53.5003C0.771738 52.6313 0.234289 51.3365 0.0722217 50.3233C-0.0249816 49.7155 -0.0237966 48.5747 0.0741502 47.8568C0.220048 46.7926 0.760371 45.4873 1.44278 44.5501C1.81418 44.0401 42.3819 2.87792 42.9472 2.43744C44.258 1.41621 45.6415 0.96143 47.7028 0.873983C48.2837 0.849283 48.9883 0.811898 49.2687 0.790781C49.5491 0.769664 51.909 0.654145 54.5128 0.534155C60.525 0.2569 63.7174 0.10801 65.3289 0.0296504C67.618 -0.0815911 68.697 0.104992 70.0631 0.848896C72.5435 2.19956 73.9862 4.62757 74 7.47409C74.0037 8.14586 73.7537 13.5789 73.6687 14.6856C73.6468 14.9701 73.531 17.1313 73.4112 19.4883C72.9599 28.3702 72.9833 28.077 72.6353 29.1677C72.4113 29.8698 72.091 30.5068 71.6217 31.1842C71.1563 31.8561 30.5153 73.0875 29.8583 73.5545C28.7805 74.3205 27.5879 74.7872 26.3258 74.9369C25.6868 75.0127 25.5037 75.0168 24.9784 74.9674L24.9787 74.9675ZM29.1397 73.1864C29.2302 73.0692 29.2275 73.0667 29.1121 73.1585C29.042 73.2143 28.9846 73.2724 28.9846 73.2878C28.9846 73.3487 29.0445 73.3096 29.1397 73.1864ZM29.7223 72.5953C29.813 72.478 29.8104 72.4755 29.6948 72.5673C29.5735 72.6638 29.5349 72.7246 29.5948 72.7246C29.6096 72.7246 29.6673 72.6664 29.7223 72.5953ZM30.305 72.0041C30.3957 71.8868 30.393 71.8844 30.2774 71.9763C30.1561 72.0728 30.1177 72.1335 30.1775 72.1335C30.1924 72.1335 30.25 72.0752 30.305 72.0041ZM30.8876 71.4131C30.9781 71.296 30.9758 71.2933 30.8602 71.3851C30.7901 71.4409 30.7327 71.499 30.7327 71.5145C30.7327 71.5752 30.7925 71.5362 30.8876 71.4131ZM31.4704 70.8219C31.5609 70.7046 31.5584 70.7022 31.4428 70.7941C31.3214 70.8906 31.283 70.9513 31.3428 70.9513C31.3577 70.9513 31.4153 70.893 31.4704 70.8219ZM32.053 70.2309C32.1435 70.1136 32.1409 70.1111 32.0255 70.2029C31.9555 70.2587 31.898 70.3168 31.898 70.3323C31.898 70.3932 31.9578 70.354 32.053 70.2309ZM32.6357 69.6397C32.7264 69.5224 32.7237 69.52 32.6081 69.6119C32.4868 69.7084 32.4484 69.7691 32.5082 69.7691C32.5231 69.7691 32.5807 69.7108 32.6357 69.6397ZM33.2183 69.0487C33.309 68.9314 33.3065 68.9289 33.1909 69.0207C33.0695 69.1172 33.031 69.178 33.0908 69.178C33.1057 69.178 33.1633 69.1198 33.2183 69.0487ZM33.8011 68.4575C33.8916 68.3404 33.8891 68.3378 33.7735 68.4297C33.7034 68.4855 33.646 68.5435 33.646 68.559C33.646 68.6197 33.7059 68.5806 33.8011 68.4575ZM34.3837 67.8665C34.4742 67.7492 34.4718 67.7467 34.3562 67.8385C34.2349 67.935 34.1963 67.9958 34.2562 67.9958C34.271 67.9958 34.3287 67.9375 34.3837 67.8665ZM34.9664 67.2753C35.0569 67.158 35.0544 67.1556 34.939 67.2475C34.8689 67.3033 34.8115 67.3613 34.8115 67.3768C34.8115 67.4377 34.8713 67.3984 34.9664 67.2753ZM35.549 66.6843C35.6395 66.567 35.6372 66.5645 35.5216 66.6563C35.4002 66.7528 35.3617 66.8136 35.4215 66.8136C35.4364 66.8136 35.494 66.7553 35.549 66.6843ZM36.1318 66.0931C36.2225 65.9758 36.2198 65.9734 36.1042 66.0653C35.9828 66.1618 35.9444 66.2225 36.0043 66.2225C36.0191 66.2225 36.0767 66.1642 36.1318 66.0931ZM36.7144 65.5021C36.8049 65.385 36.8025 65.3823 36.6869 65.4741C36.5656 65.5706 36.5271 65.6314 36.587 65.6314C36.6019 65.6314 36.6594 65.5731 36.7144 65.5021ZM37.3353 65.1266C37.269 65.0521 37.2393 64.9637 37.2694 64.93C37.2995 64.8963 37.2805 64.894 37.2283 64.9244C37.1521 64.969 37.1581 65.009 37.2579 65.1209C37.3268 65.1982 37.3994 65.2614 37.4195 65.2614C37.4396 65.2614 37.4009 65.2006 37.3353 65.1261V65.1266ZM37.8798 64.3199C37.9704 64.2026 37.9677 64.2001 37.8523 64.2919C37.7822 64.3477 37.7248 64.4058 37.7248 64.4212C37.7248 64.4821 37.7847 64.443 37.8798 64.3199ZM38.4625 63.7287C38.553 63.6114 38.5505 63.609 38.4349 63.7008C38.3648 63.7567 38.3075 63.8149 38.3075 63.8302C38.3075 63.8911 38.3673 63.8518 38.4625 63.7287ZM39.0451 63.1376C39.1358 63.0204 39.1332 63.0179 39.0176 63.1097C38.9476 63.1655 38.8901 63.2236 38.8901 63.239C38.8901 63.2999 38.9499 63.2608 39.0451 63.1376ZM12.1692 62.916C12.2597 62.7987 12.2572 62.7962 12.1416 62.888C12.0715 62.9439 12.0141 63.0019 12.0141 63.0174C12.0141 63.0781 12.074 63.0391 12.1692 62.916ZM39.6278 62.5465C39.7183 62.4294 39.716 62.4268 39.6004 62.5186C39.5303 62.5745 39.4729 62.6325 39.4729 62.648C39.4729 62.7087 39.5327 62.6696 39.6278 62.5465ZM12.7518 62.3249C12.8423 62.2076 12.8399 62.2052 12.7243 62.297C12.6543 62.3528 12.5968 62.4109 12.5968 62.4263C12.5968 62.4871 12.6566 62.448 12.7518 62.3249ZM40.2105 61.9554C40.3011 61.8384 40.2986 61.8357 40.183 61.9275C40.1129 61.9833 40.0555 62.0414 40.0555 62.0568C40.0555 62.1177 40.1154 62.0786 40.2105 61.9554ZM13.3345 61.7337C13.4252 61.6164 13.4226 61.614 13.307 61.7058C13.1856 61.8024 13.1472 61.863 13.207 61.863C13.2219 61.863 13.2795 61.8048 13.3345 61.7337ZM40.7932 61.3643C40.8837 61.247 40.8813 61.2446 40.7657 61.3364C40.6956 61.3923 40.6382 61.4503 40.6382 61.4658C40.6382 61.5265 40.698 61.4874 40.7932 61.3643ZM13.9171 61.1426C14.0077 61.0254 14.0053 61.0229 13.8897 61.1147C13.8196 61.1705 13.7622 61.2286 13.7622 61.244C13.7622 61.3047 13.822 61.2658 13.9171 61.1426ZM41.3759 60.7732C41.4664 60.656 41.4639 60.6535 41.3483 60.7453C41.2783 60.8011 41.2208 60.8594 41.2208 60.8746C41.2208 60.9355 41.2807 60.8964 41.3759 60.7732ZM14.4999 60.5515C14.5904 60.4344 14.5879 60.4318 14.4723 60.5236C14.4022 60.5794 14.3448 60.6375 14.3448 60.653C14.3448 60.7137 14.4047 60.6746 14.4999 60.5515ZM41.9585 60.1821C42.0492 60.0648 42.0467 60.0624 41.9311 60.1542C41.861 60.21 41.8036 60.2681 41.8036 60.2836C41.8036 60.3445 41.8634 60.3052 41.9585 60.1821ZM15.0825 59.9604C15.173 59.8432 15.1706 59.8408 15.055 59.9326C14.9337 60.0291 14.8951 60.0898 14.955 60.0898C14.9699 60.0898 15.0275 60.0315 15.0825 59.9604ZM42.5413 59.591C42.6318 59.474 42.6293 59.4713 42.5137 59.5631C42.4436 59.6189 42.3862 59.677 42.3862 59.6924C42.3862 59.7531 42.4461 59.7142 42.5413 59.591ZM25.4065 59.4432C25.5745 59.2818 25.6892 59.004 25.963 58.0947C26.1528 57.4648 26.3718 56.8782 26.4498 56.7912C26.6108 56.6117 26.8429 56.5177 28.0678 56.1359C29.0724 55.8228 29.3488 55.6178 29.3488 55.1859C29.3488 54.8391 29.2106 54.6979 28.0742 53.8845C27.5535 53.5117 27.0955 53.1511 27.0565 53.0831C27.0174 53.015 26.9848 52.3388 26.9836 51.5803C26.9818 50.2315 26.978 50.1971 26.8087 50.0141C26.598 49.7862 26.3108 49.7128 26.0393 49.8175C25.8434 49.8931 24.4549 50.8763 24.1259 51.1723C23.8754 51.3978 23.5151 51.3513 22.2887 50.9345C21.5051 50.6682 21.1028 50.5661 20.9613 50.5976C20.7169 50.6521 20.3899 51.0245 20.3909 51.2473C20.3914 51.3355 20.5722 51.9565 20.7927 52.6271C21.0454 53.3951 21.1791 53.9145 21.1543 54.0309C21.1325 54.1325 20.7716 54.6811 20.3522 55.25C19.4865 56.4242 19.4352 56.5878 19.8016 57.0037L20.0142 57.245L21.4063 57.2545C22.6578 57.262 22.8137 57.2776 22.9497 57.4022C23.0329 57.4784 23.3939 57.9639 23.7519 58.4811C24.1099 58.9983 24.4742 59.4722 24.5614 59.5341C24.8136 59.7134 25.1648 59.6756 25.4065 59.4435V59.4432ZM15.6652 59.3693C15.7559 59.252 15.7533 59.2495 15.6377 59.3413C15.5676 59.3971 15.5102 59.4552 15.5102 59.4707C15.5102 59.5314 15.5701 59.4924 15.6652 59.3693ZM43.1239 58.9998C43.2144 58.8827 43.212 58.8801 43.0964 58.9719C43.0264 59.0277 42.9689 59.0858 42.9689 59.1013C42.9689 59.1622 43.0287 59.1229 43.1239 58.9998ZM16.2478 58.7781C16.3385 58.6609 16.336 58.6585 16.2204 58.7503C16.1503 58.8061 16.0929 58.8644 16.0929 58.8796C16.0929 58.9405 16.1527 58.9012 16.2478 58.7781ZM43.7066 58.4087C43.7971 58.2915 43.7946 58.2891 43.679 58.3809C43.609 58.4367 43.5515 58.4946 43.5515 58.5101C43.5515 58.5708 43.6114 58.5318 43.7066 58.4087ZM16.8306 58.1871C16.9211 58.0698 16.9186 58.0673 16.803 58.1591C16.7329 58.2149 16.6755 58.273 16.6755 58.2885C16.6755 58.3492 16.7354 58.3102 16.8306 58.1871ZM44.2892 57.8176C44.3797 57.7003 44.3774 57.6979 44.2618 57.7897C44.1917 57.8455 44.1343 57.9038 44.1343 57.9191C44.1343 57.98 44.1941 57.9407 44.2892 57.8176ZM17.4132 57.5959C17.5037 57.4788 17.5013 57.4763 17.3857 57.5681C17.3157 57.6239 17.2582 57.682 17.2582 57.6974C17.2582 57.7581 17.318 57.719 17.4132 57.5959ZM38.4714 47.9316C38.7819 47.8577 39.0351 47.7618 39.0342 47.7184C39.0323 47.6222 39.0508 47.6926 37.6789 42.5413C37.5382 42.013 37.3458 41.2981 37.2512 40.9527C36.7114 38.9831 36.1179 36.6577 36.1341 36.5765C36.1453 36.5248 36.1174 36.416 36.0733 36.3347C36.0295 36.2534 35.791 35.4222 35.5431 34.4875C34.94 32.2131 34.6452 31.1055 34.3785 30.1109C34.256 29.6544 34.1559 29.2323 34.1559 29.1731C34.1559 28.9987 34.0481 28.979 33.7097 29.0913C33.5345 29.1495 33.2556 29.2324 33.09 29.2752L32.789 29.3532L33.0005 30.1469C33.2333 31.0203 33.8362 33.3106 34.1528 34.5243C34.2642 34.951 34.5261 35.9484 34.735 36.7409C34.9438 37.5334 35.1729 38.4043 35.244 38.6763C35.339 39.0398 35.3519 39.1944 35.2927 39.2597C35.2328 39.3257 35.2356 39.3351 35.3038 39.2961C35.4145 39.2326 35.3423 38.9991 36.0121 41.5805C36.3179 42.759 36.646 44.0059 36.7411 44.3513C36.8363 44.6967 37.0822 45.6277 37.2876 46.4202C37.493 47.2126 37.6783 47.9215 37.6996 47.9956C37.7208 48.0697 37.7762 48.1157 37.8227 48.098C37.8691 48.0811 38.1611 48.0052 38.4715 47.9313L38.4714 47.9316ZM6.29669 42.3566C8.37949 40.2434 10.0671 38.5144 10.0471 38.5144C10.027 38.5144 8.30666 40.2434 6.22387 42.3566C4.14109 44.4698 2.45333 46.1988 2.47337 46.1988C2.49344 46.1988 4.21392 44.4698 6.29669 42.3566ZM56.3798 45.4045C56.4705 45.2874 56.4679 45.2847 56.3522 45.3765C56.2822 45.4323 56.2247 45.4904 56.2247 45.5059C56.2247 45.5668 56.2847 45.5276 56.3798 45.4045ZM29.5038 45.1827C29.5943 45.0655 29.5919 45.0631 29.4763 45.1549C29.4063 45.2107 29.3488 45.2688 29.3488 45.2842C29.3488 45.3449 29.4086 45.3059 29.5038 45.1827ZM56.9624 44.8133C57.0529 44.6961 57.0506 44.6937 56.935 44.7855C56.8649 44.8413 56.8075 44.8993 56.8075 44.9147C56.8075 44.9754 56.8673 44.9365 56.9624 44.8133ZM30.0865 44.5917C30.177 44.4744 30.1746 44.4719 30.059 44.5637C29.9889 44.6195 29.9314 44.6776 29.9314 44.6931C29.9314 44.754 29.9914 44.7148 30.0865 44.5917ZM57.5452 44.2223C57.6359 44.105 57.6332 44.1025 57.5176 44.1943C57.4475 44.2501 57.3901 44.3082 57.3901 44.3237C57.3901 44.3844 57.45 44.3454 57.5452 44.2223ZM30.6691 44.0005C30.7597 43.8833 30.7573 43.8809 30.6417 43.9727C30.5716 44.0285 30.5142 44.0866 30.5142 44.102C30.5142 44.1629 30.574 44.1236 30.6691 44.0005ZM58.1278 43.6311C58.2183 43.5139 58.2159 43.5115 58.1003 43.6033C58.0303 43.6591 57.9728 43.7172 57.9728 43.7326C57.9728 43.7935 58.0326 43.7542 58.1278 43.6311ZM31.2519 43.4095C31.3426 43.2924 31.3399 43.2897 31.2243 43.3815C31.1542 43.4373 31.0968 43.4954 31.0968 43.5109C31.0968 43.5716 31.1567 43.5326 31.2519 43.4095ZM58.7105 43.0401C58.801 42.9228 58.7986 42.9203 58.683 43.0121C58.6129 43.0679 58.5556 43.126 58.5556 43.1415C58.5556 43.2024 58.6154 43.1632 58.7105 43.0401ZM29.8553 42.9865C31.4291 42.5616 32.636 41.185 32.8579 39.5615C33.2919 36.3869 30.1418 34.0846 27.2684 35.4762C25.5323 36.317 24.631 38.3054 25.1179 40.2205C25.3052 40.957 25.5709 41.4173 26.1258 41.9663C26.6238 42.459 27.2772 42.8333 27.912 42.9893C28.4331 43.1174 29.3754 43.116 29.8553 42.9855V42.9865ZM28.3165 41.1803C27.0483 40.7636 26.4413 39.2988 27.0401 38.1C27.4091 37.3614 28.096 36.9422 28.9504 36.9342C30.0934 36.9229 30.9701 37.7559 31.0771 38.9531C31.107 39.2871 31.0782 39.4624 30.9348 39.8226C30.7032 40.4042 30.4972 40.6564 30.0079 40.9568C29.667 41.1661 29.5329 41.2037 29.061 41.2224C28.7587 41.2337 28.4237 41.2149 28.3165 41.1804V41.1803ZM31.8345 42.8184C31.925 42.7012 31.9226 42.6987 31.807 42.7905C31.737 42.8463 31.6795 42.9044 31.6795 42.9198C31.6795 42.9805 31.7393 42.9416 31.8345 42.8184ZM59.2931 42.449C59.3838 42.332 59.3813 42.3293 59.2657 42.4211C59.1956 42.4769 59.1382 42.535 59.1382 42.5504C59.1382 42.6113 59.198 42.5722 59.2931 42.449ZM32.4172 42.2273C32.5077 42.11 32.5053 42.1076 32.3897 42.1994C32.3196 42.2552 32.2622 42.3133 32.2622 42.3288C32.2622 42.3895 32.3221 42.3504 32.4172 42.2273ZM43.9364 41.9384C45.8768 41.3605 47.143 39.3521 46.8353 37.3402C46.6148 35.8983 45.5651 34.651 44.2123 34.2232C43.6154 34.0344 42.5422 34.017 41.9288 34.186C40.1628 34.6729 38.968 36.2892 38.9641 38.1968C38.9622 39.3362 39.2803 40.1107 40.084 40.9203C41.1371 41.9813 42.5442 42.3531 43.9364 41.9384ZM42.4539 40.1896C41.6793 39.9712 41.0428 39.3725 40.8525 38.6835C40.8053 38.5123 40.7796 38.1625 40.7958 37.9057C40.8426 37.1588 41.2129 36.5593 41.8697 36.1665C42.2916 35.9142 43.2156 35.846 43.6617 36.0343C44.1342 36.2338 44.4795 36.5136 44.7178 36.8904C45.4025 37.9729 45.0276 39.409 43.9133 39.9713C43.3571 40.2519 42.9115 40.3186 42.4539 40.1896ZM59.8759 41.8579C59.9666 41.7406 59.9639 41.7381 59.8483 41.8299C59.7782 41.8857 59.7208 41.9438 59.7208 41.9593C59.7208 42.02 59.7807 41.981 59.8759 41.8579ZM32.9998 41.6362C33.0904 41.519 33.088 41.5165 32.9724 41.6083C32.9023 41.6641 32.8449 41.7222 32.8449 41.7376C32.8449 41.7985 32.9047 41.7594 32.9998 41.6362ZM60.4585 41.2668C60.5492 41.1496 60.5466 41.147 60.431 41.2389C60.361 41.2947 60.3035 41.3528 60.3035 41.3682C60.3035 41.4289 60.3633 41.39 60.4585 41.2668ZM33.5826 41.0451C33.6731 40.9278 33.6706 40.9254 33.555 41.0172C33.4849 41.073 33.4275 41.1311 33.4275 41.1466C33.4275 41.2075 33.4874 41.1682 33.5826 41.0451ZM61.0412 40.6757C61.1317 40.5584 61.1294 40.556 61.0138 40.6478C60.9437 40.7036 60.8863 40.7616 60.8863 40.7771C60.8863 40.838 60.9461 40.7988 61.0412 40.6757ZM34.1652 40.454C34.2559 40.3369 34.2533 40.3342 34.1377 40.4261C34.0677 40.4819 34.0102 40.54 34.0102 40.5554C34.0102 40.6161 34.07 40.5772 34.1652 40.454ZM61.624 40.0845C61.7145 39.9672 61.712 39.9648 61.5964 40.0567C61.5263 40.1125 61.4689 40.1706 61.4689 40.186C61.4689 40.2469 61.5288 40.2076 61.624 40.0845ZM34.7479 39.8629C34.8384 39.7456 34.836 39.7432 34.7204 39.835C34.6503 39.8908 34.5929 39.9489 34.5929 39.9644C34.5929 40.0251 34.6528 39.986 34.7479 39.8629ZM62.2066 39.4935C62.2973 39.3764 62.2946 39.3737 62.179 39.4655C62.1089 39.5213 62.0515 39.5794 62.0515 39.5949C62.0515 39.6558 62.1114 39.6166 62.2066 39.4935ZM39.0359 39.3771C39.0359 39.3639 38.9457 39.2724 38.8356 39.1739L38.6352 38.9948L38.8119 39.1981C38.9769 39.388 39.0359 39.4351 39.0359 39.3771ZM62.7892 38.9024C62.8799 38.7853 62.8773 38.7828 62.7617 38.8746C62.6917 38.9304 62.6342 38.9885 62.6342 39.0039C62.6342 39.0648 62.694 39.0255 62.7892 38.9024ZM63.3719 38.3114C63.4624 38.1941 63.4601 38.1914 63.3445 38.2834C63.2744 38.3392 63.217 38.3973 63.217 38.4128C63.217 38.4735 63.2768 38.4345 63.3719 38.3114ZM64.091 38.2674C64.091 38.2542 64.0172 38.1786 63.9271 38.1011L63.7632 37.9605L63.902 38.1268C64.0325 38.2831 64.091 38.3267 64.091 38.2677V38.2674ZM14.09 34.4481L17.6589 30.7939L14.0536 34.4141C12.0707 36.4053 10.4597 38.0615 10.4737 38.0947C10.4886 38.1279 10.5042 38.1432 10.5101 38.1286C10.5157 38.1136 12.1271 36.4579 14.09 34.4481ZM63.9818 37.7018C64.0543 37.6205 64.0971 37.5541 64.0771 37.5541C64.057 37.5541 63.9813 37.6205 63.9088 37.7018C63.8363 37.7831 63.7935 37.8497 63.8135 37.8497C63.8336 37.8497 63.9093 37.7831 63.9818 37.7018ZM63.4355 37.6C63.4355 37.5849 63.378 37.5264 63.3079 37.4706C63.1923 37.3786 63.19 37.3813 63.2805 37.4986C63.3757 37.6217 63.4355 37.6607 63.4355 37.6ZM37.0997 37.4898C37.1211 37.4546 37.0657 37.3632 36.9765 37.2867C36.8148 37.148 36.8146 37.1479 36.9419 37.3018C37.0122 37.3865 37.0477 37.4779 37.0209 37.505C36.9941 37.5322 36.9921 37.5544 37.0171 37.5544C37.0415 37.5544 37.079 37.5256 37.1004 37.4903L37.0997 37.4898ZM64.5373 37.1291C64.6278 37.0118 64.6254 37.0093 64.5098 37.1011C64.3885 37.1976 64.3499 37.2584 64.4098 37.2584C64.4246 37.2584 64.4823 37.2001 64.5373 37.1291ZM37.6612 36.9074C37.7518 36.7901 37.7494 36.7876 37.6338 36.8795C37.5637 36.9353 37.5063 36.9933 37.5063 37.0088C37.5063 37.0695 37.5661 37.0305 37.6612 36.9074ZM62.8528 37.0088C62.8528 36.9937 62.7954 36.9353 62.7253 36.8795C62.6097 36.7876 62.6073 36.7901 62.6978 36.9074C62.7929 37.0305 62.8528 37.0695 62.8528 37.0088ZM65.12 36.538C65.2105 36.4209 65.2081 36.4182 65.0924 36.5101C65.0224 36.5659 64.9649 36.6239 64.9649 36.6394C64.9649 36.7003 65.0249 36.6611 65.12 36.538ZM38.244 36.3163C38.3345 36.199 38.332 36.1966 38.2164 36.2884C38.1463 36.3442 38.0889 36.4023 38.0889 36.4178C38.0889 36.4785 38.1488 36.4394 38.244 36.3163ZM62.2701 36.4178C62.2701 36.4027 62.2127 36.3442 62.1426 36.2884C62.0272 36.1964 62.0246 36.199 62.1151 36.3163C62.2103 36.4394 62.2701 36.4785 62.2701 36.4178ZM65.7026 35.9469C65.7933 35.8298 65.7908 35.8272 65.6752 35.919C65.6051 35.9748 65.5477 36.0329 65.5477 36.0484C65.5477 36.1093 65.6075 36.07 65.7026 35.9469ZM38.8266 35.7252C38.9171 35.6079 38.9148 35.6055 38.7991 35.6974C38.7291 35.7532 38.6716 35.8113 38.6716 35.8267C38.6716 35.8876 38.7314 35.8483 38.8266 35.7252ZM61.6875 35.8267C61.6875 35.8116 61.63 35.7532 61.56 35.6974C61.4444 35.6055 61.4419 35.6079 61.5324 35.7252C61.6276 35.8483 61.6875 35.8874 61.6875 35.8267ZM66.2854 35.3558C66.3759 35.2385 66.3734 35.236 66.2578 35.328C66.1877 35.3838 66.1303 35.4419 66.1303 35.4573C66.1303 35.518 66.1902 35.4789 66.2854 35.3558ZM39.4093 35.1342C39.4998 35.0169 39.4974 35.0144 39.3818 35.1062C39.3117 35.162 39.2543 35.2201 39.2543 35.2356C39.2543 35.2965 39.3142 35.2573 39.4093 35.1342ZM61.1048 35.2356C61.1048 35.2205 61.0473 35.162 60.9772 35.1062C60.8616 35.0144 60.8593 35.0169 60.9498 35.1342C61.045 35.2573 61.1048 35.2963 61.1048 35.2356ZM66.868 34.7648C66.9585 34.6475 66.9561 34.6451 66.8405 34.7369C66.7705 34.7927 66.713 34.8507 66.713 34.8662C66.713 34.9269 66.7728 34.8879 66.868 34.7648ZM39.992 34.5431C40.0826 34.426 40.0801 34.4233 39.9645 34.5152C39.8944 34.571 39.837 34.6291 39.837 34.6445C39.837 34.7052 39.8968 34.6663 39.992 34.5431ZM60.5221 34.6445C60.5221 34.6294 60.4647 34.571 60.3946 34.5152C60.279 34.4232 60.2766 34.4259 60.3671 34.5431C60.4622 34.6663 60.5221 34.7052 60.5221 34.6445ZM67.4507 34.1737C67.5412 34.0565 67.5388 34.0539 67.4231 34.1458C67.3531 34.2016 67.2956 34.2598 67.2956 34.2751C67.2956 34.336 67.3556 34.2968 67.4507 34.1737ZM40.5747 33.952C40.6654 33.8349 40.6627 33.8323 40.5471 33.9241C40.4771 33.9799 40.4196 34.038 40.4196 34.0535C40.4196 34.1144 40.4795 34.0751 40.5747 33.952ZM59.9394 34.0535C59.9394 34.0384 59.882 33.9799 59.8119 33.9241C59.6965 33.8323 59.6939 33.8347 59.7844 33.952C59.8796 34.0751 59.9394 34.1142 59.9394 34.0535ZM68.0333 33.5826C68.1238 33.4655 68.1215 33.4629 68.0059 33.5547C67.8845 33.6513 67.846 33.7119 67.9058 33.7119C67.9207 33.7119 67.9783 33.6537 68.0333 33.5826ZM41.1573 33.3609C41.2478 33.2437 41.2455 33.2411 41.1299 33.3331C41.0598 33.3889 41.0023 33.447 41.0023 33.4624C41.0023 33.5231 41.0621 33.484 41.1573 33.3609ZM59.3568 33.4624C59.3568 33.4473 59.2993 33.3889 59.2293 33.3331C59.1139 33.2411 59.1112 33.2437 59.2017 33.3609C59.2969 33.484 59.3568 33.5231 59.3568 33.4624ZM68.6161 32.9915C68.7068 32.8744 68.7041 32.8719 68.5885 32.9637C68.5184 33.0195 68.461 33.0774 68.461 33.0929C68.461 33.1538 68.5209 33.1146 68.6161 32.9915ZM41.74 32.7699C41.8305 32.6526 41.8281 32.6501 41.7125 32.7419C41.6424 32.7977 41.5851 32.8558 41.5851 32.8713C41.5851 32.9322 41.6449 32.893 41.74 32.7699ZM58.774 32.8713C58.774 32.8562 58.7166 32.7977 58.6465 32.7419C58.5309 32.6501 58.5286 32.6526 58.6191 32.7699C58.7142 32.893 58.774 32.932 58.774 32.8713ZM69.1987 32.4005C69.2892 32.2832 69.2868 32.2805 69.1712 32.3725C69.1012 32.4283 69.0437 32.4864 69.0437 32.5019C69.0437 32.5626 69.1035 32.5236 69.1987 32.4005ZM42.3227 32.1788C42.4132 32.0616 42.4108 32.0591 42.2952 32.1509C42.2251 32.2067 42.1677 32.2648 42.1677 32.2802C42.1677 32.3411 42.2275 32.302 42.3227 32.1788ZM58.1914 32.2802C58.1914 32.2651 58.134 32.2067 58.0639 32.1509C57.9483 32.0591 57.9458 32.0616 58.0364 32.1788C58.1315 32.302 58.1914 32.3409 58.1914 32.2802ZM69.7814 31.8094C69.8719 31.6922 69.8695 31.6897 69.7539 31.7815C69.6325 31.878 69.5941 31.9388 69.6539 31.9388C69.6688 31.9388 69.7264 31.8805 69.7814 31.8094ZM42.9054 31.5877C42.9961 31.4706 42.9934 31.468 42.8778 31.5598C42.8078 31.6156 42.7503 31.6737 42.7503 31.6892C42.7503 31.7499 42.8102 31.7108 42.9054 31.5877ZM57.6087 31.6892C57.6087 31.6741 57.5513 31.6156 57.4812 31.5598C57.3656 31.4678 57.3632 31.4704 57.4537 31.5877C57.5489 31.7108 57.6087 31.7499 57.6087 31.6892ZM53.0438 31.2706C53.212 31.1364 53.5424 30.2324 53.936 28.8299C54.0321 28.4876 54.1504 28.4347 56.4144 27.7202C56.8639 27.5784 57.0905 27.14 56.9236 26.7349C56.8272 26.5008 56.6657 26.3632 55.5693 25.5803C54.5661 24.8641 54.6224 24.9935 54.6224 23.4063C54.6224 22.0681 54.6206 22.046 54.4413 21.8305C54.3415 21.7102 54.1695 21.5944 54.0589 21.573C53.8325 21.529 53.4238 21.6795 53.2033 21.8878C52.7561 22.3104 51.5261 23.1461 51.3512 23.1461C51.2447 23.1461 50.6683 22.9797 50.0704 22.7766C48.7887 22.341 48.5764 22.3229 48.2803 22.6232C47.9873 22.9204 48.0032 23.1055 48.4314 24.3855C48.6316 24.9839 48.7954 25.5762 48.7956 25.7016C48.7958 25.9344 48.6731 26.1317 47.723 27.4253C47.251 28.068 47.1642 28.356 47.3413 28.6917C47.5045 29.001 47.7713 29.0571 49.0802 29.0571C49.8124 29.0571 50.3869 29.0895 50.4858 29.1366C50.5778 29.1804 50.7503 29.355 50.8692 29.5245C51.9218 31.0264 52.1523 31.3382 52.2342 31.3716C52.4616 31.4641 52.8644 31.4139 53.0439 31.2706H53.0438ZM70.364 31.2183C70.4546 31.101 70.4522 31.0985 70.3366 31.1903C70.2665 31.2461 70.2091 31.3044 70.2091 31.3197C70.2091 31.3806 70.2689 31.3414 70.364 31.2183ZM43.488 30.9966C43.5787 30.8795 43.5762 30.8769 43.4606 30.9687C43.3905 31.0245 43.333 31.0826 43.333 31.098C43.333 31.1589 43.3928 31.1198 43.488 30.9966ZM57.026 31.098C57.026 31.0829 56.9686 31.0245 56.8986 30.9687C56.7832 30.8769 56.7805 30.8794 56.871 30.9966C56.9662 31.1198 57.026 31.1587 57.026 31.098ZM70.9468 30.6271C71.0373 30.51 71.0348 30.5074 70.9192 30.5993C70.7978 30.6958 70.7594 30.7565 70.8193 30.7565C70.8341 30.7565 70.8918 30.6982 70.9468 30.6271ZM44.0707 30.4055C44.1613 30.2882 44.1589 30.2856 44.0433 30.3776C43.9732 30.4334 43.9158 30.4915 43.9158 30.507C43.9158 30.5677 43.9756 30.5286 44.0707 30.4055ZM56.4433 30.507C56.4433 30.4919 56.3859 30.4334 56.3158 30.3776C56.2004 30.2856 56.1979 30.2882 56.2884 30.4055C56.3835 30.5286 56.4433 30.5677 56.4433 30.507ZM71.6293 29.9438C71.7018 29.8625 71.7448 29.7959 71.7247 29.7959C71.7047 29.7959 71.629 29.8625 71.5565 29.9438C71.484 30.025 71.4411 30.0915 71.4612 30.0915C71.4813 30.0915 71.5568 30.025 71.6293 29.9438ZM43.6973 17.7244C43.6973 17.7093 43.6399 17.6508 43.5698 17.595C43.4542 17.5032 43.4517 17.5056 43.5422 17.6229C43.6374 17.746 43.6973 17.7851 43.6973 17.7244ZM57.0353 17.4012C57.126 17.284 57.1234 17.2816 57.0078 17.3734C56.9377 17.4292 56.8803 17.4875 56.8803 17.5027C56.8803 17.5636 56.9401 17.5244 57.0353 17.4012ZM71.0103 17.5027C71.0103 17.4877 70.9529 17.4292 70.8828 17.3734C70.7674 17.2816 70.7647 17.284 70.8552 17.4012C70.9504 17.5244 71.0103 17.5634 71.0103 17.5027ZM43.1146 17.1333C43.1146 17.1183 43.0571 17.0598 42.9871 17.004C42.8715 16.9122 42.8691 16.9146 42.9596 17.0318C43.0548 17.155 43.1146 17.194 43.1146 17.1333ZM57.618 16.8102C57.7085 16.6929 57.706 16.6905 57.5904 16.7823C57.5204 16.8382 57.463 16.8962 57.463 16.9117C57.463 16.9724 57.5228 16.9333 57.618 16.8102ZM70.4276 16.9117C70.4276 16.8966 70.3701 16.8382 70.3001 16.7823C70.1845 16.6905 70.1821 16.6929 70.2726 16.8102C70.3678 16.9333 70.4276 16.9724 70.4276 16.9117ZM42.5319 16.5422C42.5319 16.5271 42.4745 16.4686 42.4044 16.4128C42.289 16.321 42.2864 16.3235 42.3769 16.4408C42.472 16.5639 42.5319 16.6029 42.5319 16.5422ZM58.2007 16.2192C58.2912 16.1021 58.2888 16.0994 58.1732 16.1912C58.1031 16.247 58.0457 16.3051 58.0457 16.3205C58.0457 16.3812 58.1056 16.3423 58.2007 16.2192ZM69.8449 16.3205C69.8449 16.3055 69.7875 16.247 69.7174 16.1912C69.6018 16.0992 69.5994 16.1019 69.6899 16.2192C69.785 16.3423 69.8449 16.3812 69.8449 16.3205ZM41.9492 15.9511C41.9492 15.936 41.8918 15.8776 41.8217 15.8218C41.7063 15.73 41.7037 15.7324 41.7943 15.8496C41.8894 15.9728 41.9492 16.0118 41.9492 15.9511ZM62.6075 15.8023C64.1939 15.3738 65.3634 13.7554 65.2374 12.163C65.2034 11.7327 65.2109 11.6977 65.3192 11.7815C65.3848 11.8322 65.3648 11.789 65.2746 11.6864C65.1845 11.5835 65.1105 11.4514 65.1099 11.3931C65.1088 11.2332 64.7615 10.5082 64.5534 10.2314C64.3958 10.0218 64.3836 9.96964 64.4671 9.8614C64.5511 9.75261 64.5494 9.74714 64.4559 9.82124C64.3677 9.89043 64.256 9.83822 63.8745 9.54631C63.1962 9.02827 62.5729 8.81188 61.7594 8.81188C60.7682 8.81188 60.0374 9.10352 59.3176 9.7866C57.8438 11.1853 57.8691 13.6099 59.3717 14.9806C59.7815 15.3543 60.4301 15.72 60.8691 15.825C61.2913 15.9259 62.1941 15.9141 62.6082 15.8023H62.6075ZM58.7833 15.628C58.874 15.5107 58.8714 15.5082 58.7558 15.6C58.6857 15.6558 58.6283 15.7139 58.6283 15.7294C58.6283 15.7903 58.6882 15.7511 58.7833 15.628ZM69.2622 15.7294C69.2622 15.7143 69.2048 15.6558 69.1347 15.6C69.0191 15.5082 69.0167 15.5107 69.1073 15.628C69.2024 15.7511 69.2622 15.7901 69.2622 15.7294ZM41.3666 15.36C41.3666 15.3449 41.3092 15.2864 41.2391 15.2306C41.1235 15.1386 41.121 15.1412 41.2115 15.2585C41.3067 15.3816 41.3666 15.4207 41.3666 15.36ZM68.6796 15.1383C68.6796 15.1232 68.6222 15.0648 68.5521 15.009C68.4365 14.9172 68.434 14.9196 68.5245 15.0368C68.6197 15.16 68.6796 15.199 68.6796 15.1383ZM40.7839 14.7688C40.7839 14.7537 40.7264 14.6953 40.6564 14.6395C40.5408 14.5476 40.5384 14.5502 40.6289 14.6674C40.7241 14.7906 40.7839 14.8295 40.7839 14.7688ZM68.0969 14.5472C68.0969 14.5321 68.0394 14.4736 67.9694 14.4178C67.8539 14.326 67.8514 14.3285 67.9419 14.4458C68.0371 14.5689 68.0969 14.6079 68.0969 14.5472ZM40.2012 14.1778C40.2012 14.1627 40.1438 14.1042 40.0737 14.0484C39.9581 13.9566 39.9557 13.959 40.0462 14.0763C40.1413 14.1994 40.2012 14.2385 40.2012 14.1778ZM67.5142 13.9561C67.5142 13.941 67.4568 13.8826 67.3867 13.8268C67.2711 13.735 67.2687 13.7374 67.3592 13.8546C67.4543 13.9777 67.5142 14.0168 67.5142 13.9561ZM39.6185 13.5866C39.6185 13.5715 39.5611 13.5131 39.491 13.4573C39.3754 13.3654 39.373 13.368 39.4636 13.4852C39.5587 13.6083 39.6185 13.6473 39.6185 13.5866ZM66.9315 13.365C66.9315 13.3499 66.8741 13.2914 66.804 13.2356C66.6884 13.1436 66.686 13.1463 66.7766 13.2636C66.8717 13.3867 66.9315 13.4257 66.9315 13.365ZM39.0359 12.9956C39.0359 12.9805 38.9785 12.922 38.9084 12.8662C38.793 12.7744 38.7903 12.7768 38.8808 12.8941C38.976 13.0172 39.0359 13.0563 39.0359 12.9956ZM66.3489 12.7739C66.3489 12.7588 66.2915 12.7004 66.2214 12.6446C66.1058 12.5528 66.1033 12.5552 66.1938 12.6724C66.289 12.7955 66.3489 12.8346 66.3489 12.7739ZM38.4532 12.4044C38.4532 12.3893 38.3957 12.3309 38.3257 12.2751C38.2101 12.183 38.2077 12.1857 38.2982 12.303C38.3934 12.4261 38.4532 12.4651 38.4532 12.4044ZM65.7662 12.1828C65.7662 12.1677 65.7087 12.1092 65.6387 12.0534C65.523 11.9616 65.5207 11.9641 65.6112 12.0814C65.7064 12.2045 65.7662 12.2435 65.7662 12.1828ZM37.8705 11.8134C37.8705 11.7983 37.8131 11.7398 37.743 11.684C37.6274 11.592 37.625 11.5946 37.7155 11.7119C37.8106 11.835 37.8705 11.8741 37.8705 11.8134ZM37.3606 11.3009C37.3606 11.2877 37.2677 11.1876 37.1543 11.0772C37.0121 10.939 36.9479 10.9107 36.9479 10.9863C36.9479 11.0466 36.9708 11.0815 36.9989 11.064C37.0269 11.047 37.1085 11.0977 37.18 11.178C37.3023 11.3151 37.3605 11.3548 37.3605 11.301L37.3606 11.3009ZM36.7052 10.6312C36.7052 10.6161 36.6478 10.5576 36.5777 10.5018C36.4621 10.41 36.4596 10.4124 36.5501 10.5297C36.6453 10.6528 36.7052 10.6919 36.7052 10.6312ZM36.0496 9.96612C36.0496 9.95104 35.9922 9.89258 35.9221 9.83677C35.8067 9.74476 35.8041 9.74746 35.8946 9.86474C35.9897 9.98786 36.0496 10.0268 36.0496 9.96612ZM65.1928 9.12582C65.2835 9.00854 65.2809 9.00615 65.1653 9.09797C65.0952 9.15378 65.0378 9.21185 65.0378 9.22731C65.0378 9.28822 65.0977 9.24894 65.1928 9.12582ZM62.3429 8.71245C62.3429 8.69925 62.2692 8.62366 62.179 8.54616L62.0151 8.40531L62.1539 8.5716C62.2844 8.7279 62.3429 8.77151 62.3429 8.71245ZM65.7755 8.53489C65.866 8.41761 65.8636 8.4151 65.748 8.50692C65.6779 8.56273 65.6205 8.62081 65.6205 8.63627C65.6205 8.69717 65.6803 8.65801 65.7755 8.53489ZM61.6875 8.04511C61.6875 8.03003 61.63 7.97157 61.56 7.91576C61.4444 7.82394 61.4419 7.82645 61.5324 7.94373C61.6276 8.06685 61.6875 8.10582 61.6875 8.04511ZM66.3582 7.94373C66.4487 7.82664 66.4462 7.82394 66.3306 7.91576C66.2606 7.97157 66.2031 8.02965 66.2031 8.04511C66.2031 8.10601 66.263 8.06685 66.3582 7.94373ZM61.1048 7.45407C61.1048 7.43898 61.0473 7.38053 60.9772 7.32472C60.8616 7.23271 60.8593 7.23529 60.9498 7.35257C61.045 7.47569 61.1048 7.51478 61.1048 7.45407ZM66.9408 7.35257C67.0313 7.23548 67.029 7.2329 66.9134 7.32472C66.8433 7.38053 66.7859 7.43861 66.7859 7.45407C66.7859 7.51478 66.8456 7.47569 66.9408 7.35257ZM60.5221 6.86291C60.5221 6.84782 60.4647 6.78937 60.3946 6.73356C60.279 6.64155 60.2766 6.64413 60.3671 6.76141C60.4622 6.88453 60.5221 6.92362 60.5221 6.86291ZM67.5235 6.76141C67.6141 6.64413 67.6116 6.64174 67.496 6.73356C67.4259 6.78937 67.3685 6.84745 67.3685 6.86291C67.3685 6.92362 67.4284 6.88453 67.5235 6.76141ZM59.9394 6.27175C59.9394 6.25667 59.882 6.19821 59.8119 6.1424C59.6965 6.05058 59.6939 6.05309 59.7844 6.17036C59.8796 6.29348 59.9394 6.33246 59.9394 6.27175ZM68.1062 6.17036C68.1969 6.05309 68.1943 6.05058 68.0787 6.1424C68.0086 6.19821 67.9512 6.25629 67.9512 6.27175C67.9512 6.33265 68.011 6.29348 68.1062 6.17036ZM59.3568 5.68059C59.3568 5.66551 59.2993 5.60705 59.2293 5.55124C59.1139 5.45942 59.1112 5.46193 59.2017 5.57921C59.2969 5.70232 59.3568 5.7413 59.3568 5.68059ZM68.6889 5.57921C68.7794 5.46193 68.7769 5.45942 68.6613 5.55124C68.5913 5.60705 68.5338 5.66513 68.5338 5.68059C68.5338 5.74149 68.5937 5.70232 68.6889 5.57921ZM58.774 5.08943C58.774 5.07435 58.7166 5.01589 58.6465 4.96008C58.5309 4.86826 58.5286 4.87077 58.6191 4.98805C58.7142 5.11117 58.774 5.15014 58.774 5.08943ZM69.2715 4.98805C69.362 4.87096 69.3597 4.86826 69.2441 4.96008C69.174 5.01589 69.1166 5.07397 69.1166 5.08943C69.1166 5.15033 69.1764 5.11117 69.2715 4.98805ZM58.1914 4.49839C58.1914 4.4833 58.134 4.42485 58.0639 4.36904C57.9483 4.27703 57.9458 4.27961 58.0364 4.39689C58.1315 4.52001 58.1914 4.5591 58.1914 4.49839ZM69.8542 4.39689C69.9448 4.2798 69.9423 4.27722 69.8267 4.36904C69.7566 4.42485 69.6992 4.48293 69.6992 4.49839C69.6992 4.5591 69.7591 4.52001 69.8542 4.39689ZM57.6087 3.90723C57.6087 3.89214 57.5513 3.83369 57.4812 3.77788C57.3656 3.68587 57.3632 3.68857 57.4537 3.80584C57.5489 3.92896 57.6087 3.96794 57.6087 3.90723ZM70.4369 3.80584C70.5274 3.68857 70.525 3.68606 70.4094 3.77788C70.3393 3.83369 70.2819 3.89177 70.2819 3.90723C70.2819 3.96794 70.3417 3.92896 70.4369 3.80584ZM57.026 3.31607C57.026 3.30098 56.9686 3.24253 56.8986 3.18672C56.7832 3.0949 56.7805 3.09741 56.871 3.21468C56.9662 3.3378 57.026 3.37678 57.026 3.31607ZM71.0196 3.21468C71.1103 3.09741 71.1076 3.0949 70.992 3.18672C70.922 3.24253 70.8645 3.30061 70.8645 3.31607C70.8645 3.37697 70.9244 3.3378 71.0196 3.21468ZM56.4433 2.72491C56.4433 2.70982 56.3859 2.65137 56.3158 2.59556C56.2004 2.50374 56.1979 2.50625 56.2884 2.62352C56.3835 2.74664 56.4433 2.78562 56.4433 2.72491ZM71.6022 2.62352C71.6927 2.50625 71.6904 2.50374 71.5748 2.59556C71.5047 2.65137 71.4473 2.70945 71.4473 2.72491C71.4473 2.78581 71.5071 2.74664 71.6022 2.62352Z" fill="white"/>
</svg>
