<svg width="37" height="29" viewBox="0 0 37 29" fill="none" xmlns="http://www.w3.org/2000/svg">
<path d="M31.0196 24.4234C31.0196 24.8636 30.7241 25.1808 30.3002 25.1808C29.8634 25.1808 29.5807 24.8442 29.5807 24.4234C29.5807 24.0027 29.8634 23.6661 30.3002 23.6661C30.7241 23.6661 31.0196 24.0027 31.0196 24.4234ZM11.055 23.6661C10.599 23.6661 10.3356 24.0027 10.3356 24.4234C10.3356 24.8442 10.599 25.1808 11.055 25.1808C11.4726 25.1808 11.7552 24.8636 11.7552 24.4234C11.7488 24.0027 11.4726 23.6661 11.055 23.6661ZM18.6028 23.6467C18.2559 23.6467 18.0439 23.8732 17.9925 24.2098H19.2194C19.1616 23.8408 18.9368 23.6467 18.6028 23.6467ZM25.5274 23.6661C25.0906 23.6661 24.8273 24.0027 24.8273 24.4234C24.8273 24.8442 25.0906 25.1808 25.5274 25.1808C25.9642 25.1808 26.2469 24.8636 26.2469 24.4234C26.2469 24.0027 25.9642 23.6661 25.5274 23.6661ZM32.33 25.3556C32.33 25.375 32.3493 25.3879 32.3493 25.4268C32.3493 25.4462 32.33 25.4592 32.33 25.498C32.3108 25.5174 32.3108 25.5304 32.2979 25.5498C32.2786 25.5692 32.2658 25.5821 32.2273 25.5821C32.208 25.6016 32.1951 25.6016 32.1566 25.6016C32.1373 25.6016 32.1245 25.6016 32.0859 25.5821C32.0667 25.5821 32.0538 25.5627 32.0345 25.5498C32.0153 25.5304 32.0024 25.5174 32.0024 25.498C31.9832 25.4656 31.9832 25.4462 31.9832 25.4268C31.9832 25.3944 31.9832 25.375 32.0024 25.3556C32.0024 25.3232 32.0217 25.3038 32.0345 25.2844C32.0538 25.265 32.0667 25.265 32.0859 25.252C32.1181 25.2326 32.1373 25.2326 32.1566 25.2326C32.1887 25.2326 32.208 25.2326 32.2273 25.252C32.2594 25.2714 32.2786 25.2714 32.2979 25.2844C32.3172 25.2973 32.3108 25.3232 32.33 25.3556ZM32.1887 25.4462C32.2208 25.4462 32.2208 25.4268 32.2401 25.4268C32.2594 25.4074 32.2594 25.3944 32.2594 25.375C32.2594 25.3556 32.2594 25.3426 32.2401 25.3232C32.2208 25.3232 32.208 25.3038 32.1694 25.3038H32.0667V25.5304H32.1181V25.4397H32.1373L32.208 25.5304H32.2594L32.1887 25.4462ZM37 3.10714V25.8929C37 27.6083 35.6189 29 33.9167 29H3.08333C1.38108 29 0 27.6083 0 25.8929V3.10714C0 1.39174 1.38108 0 3.08333 0H33.9167C35.6189 0 37 1.39174 37 3.10714ZM4.11111 12.1438C4.11111 17.0958 8.10017 21.1092 13.0078 21.1092C14.755 21.1092 16.4701 20.5783 17.9219 19.6138C13.2391 15.7752 13.2712 8.5317 17.9219 4.69308C16.4701 3.7221 14.755 3.19777 13.0078 3.19777C8.10017 3.19129 4.11111 7.21116 4.11111 12.1438ZM18.5 19.1866C23.0286 15.6263 23.0094 8.68705 18.5 5.10737C13.9906 8.68705 13.9714 15.6328 18.5 19.1866ZM9.3592 24.1257C9.3592 23.5625 8.99306 23.1935 8.41493 23.1741C8.11944 23.1741 7.80469 23.2647 7.59271 23.5949C7.43854 23.3295 7.17517 23.1741 6.80903 23.1741C6.56493 23.1741 6.32083 23.2647 6.12813 23.5237V23.2388H5.60139V25.6145H6.12813C6.12813 24.3911 5.96754 23.6596 6.70625 23.6596C7.36146 23.6596 7.23299 24.3199 7.23299 25.6145H7.74045C7.74045 24.4299 7.57986 23.6596 8.31858 23.6596C8.97378 23.6596 8.84531 24.3069 8.84531 25.6145H9.37205V24.1257H9.3592ZM12.2434 23.2388H11.7359V23.5237C11.5625 23.31 11.3184 23.1741 10.9844 23.1741C10.3227 23.1741 9.81528 23.7049 9.81528 24.4234C9.81528 25.1484 10.3227 25.6728 10.9844 25.6728C11.3184 25.6728 11.5625 25.5498 11.7359 25.3232V25.621H12.2434V23.2388ZM14.845 24.896C14.845 23.925 13.374 24.3652 13.374 23.9121C13.374 23.5431 14.1384 23.6013 14.5623 23.8408L14.7743 23.4201C14.1705 23.0252 12.8344 23.0317 12.8344 23.9509C12.8344 24.8766 14.3054 24.4882 14.3054 24.9219C14.3054 25.3297 13.4382 25.2973 12.9757 24.9737L12.7509 25.3815C13.4703 25.8734 14.845 25.7699 14.845 24.896ZM17.1189 25.498L16.9776 25.0578C16.7335 25.1938 16.1939 25.3426 16.1939 24.7924V23.7179H17.0354V23.2388H16.1939V22.5138H15.6672V23.2388H15.179V23.7114H15.6672V24.7924C15.6672 25.9317 16.7785 25.7246 17.1189 25.498ZM17.9733 24.6306H19.7398C19.7398 23.5819 19.2644 23.1676 18.622 23.1676C17.9411 23.1676 17.453 23.679 17.453 24.417C17.453 25.744 18.9047 25.9641 19.6241 25.3362L19.38 24.9478C18.879 25.3621 18.121 25.3232 17.9733 24.6306ZM21.7696 23.2388C21.4741 23.1094 21.0245 23.1223 20.7932 23.5237V23.2388H20.2665V25.6145H20.7932V24.2746C20.7932 23.5237 21.4035 23.6208 21.6155 23.7308L21.7696 23.2388ZM22.4505 24.4234C22.4505 23.6855 23.1957 23.446 23.7802 23.8797L24.0243 23.4589C23.2792 22.8699 21.9238 23.1935 21.9238 24.4299C21.9238 25.7116 23.3627 25.9705 24.0243 25.4009L23.7802 24.9801C23.1892 25.4009 22.4505 25.1484 22.4505 24.4234ZM26.7351 23.2388H26.2083V23.5237C25.6752 22.8116 24.2877 23.2129 24.2877 24.4234C24.2877 25.6663 25.7266 26.0223 26.2083 25.3232V25.621H26.7351V23.2388ZM28.8998 23.2388C28.7457 23.1612 28.1932 23.0511 27.9234 23.5237V23.2388H27.416V25.6145H27.9234V24.2746C27.9234 23.5625 28.5016 23.6078 28.7457 23.7308L28.8998 23.2388ZM31.4885 22.2743H30.9811V23.5237C30.4543 22.8181 29.0604 23.1935 29.0604 24.4234C29.0604 25.6792 30.5057 26.0158 30.9811 25.3232V25.621H31.4885V22.2743ZM31.9767 17.4129V17.7107H32.0281V17.4129H32.1502V17.3612H31.8547V17.4129H31.9767ZM32.4007 25.4268C32.4007 25.3944 32.4007 25.3556 32.3814 25.3232C32.3622 25.3038 32.3493 25.2714 32.33 25.252C32.3108 25.2326 32.2786 25.2196 32.2594 25.2002C32.2273 25.2002 32.1887 25.1808 32.1566 25.1808C32.1373 25.1808 32.1052 25.2002 32.0667 25.2002C32.0345 25.2196 32.0153 25.2326 31.996 25.252C31.9639 25.2714 31.9446 25.3038 31.9446 25.3232C31.9253 25.3556 31.9253 25.3944 31.9253 25.4268C31.9253 25.4462 31.9253 25.4786 31.9446 25.5174C31.9446 25.5368 31.9639 25.5692 31.996 25.5886C32.0153 25.608 32.0281 25.621 32.0667 25.6404C32.0988 25.6598 32.1373 25.6598 32.1566 25.6598C32.1887 25.6598 32.2273 25.6598 32.2594 25.6404C32.2786 25.621 32.3108 25.608 32.33 25.5886C32.3493 25.5692 32.3622 25.5368 32.3814 25.5174C32.4007 25.4786 32.4007 25.4462 32.4007 25.4268ZM32.6063 17.3547H32.5163L32.4135 17.5812L32.3108 17.3547H32.2208V17.7042H32.2722V17.4388L32.375 17.6654H32.4457L32.5356 17.4388V17.7042H32.6063V17.3547ZM32.8889 12.1438C32.8889 7.21116 28.8998 3.19129 23.9922 3.19129C22.245 3.19129 20.5299 3.7221 19.0781 4.68661C23.7095 8.52522 23.7802 15.7882 19.0781 19.6074C20.5299 20.5783 22.2578 21.1027 23.9922 21.1027C28.8998 21.1092 32.8889 17.0958 32.8889 12.1438Z" fill="white"/>
<path d="M31.0196 24.4234C31.0196 24.8636 30.7241 25.1808 30.3002 25.1808C29.8634 25.1808 29.5807 24.8442 29.5807 24.4234C29.5807 24.0027 29.8634 23.6661 30.3002 23.6661C30.7241 23.6661 31.0196 24.0027 31.0196 24.4234ZM11.055 23.6661C10.599 23.6661 10.3356 24.0027 10.3356 24.4234C10.3356 24.8442 10.599 25.1808 11.055 25.1808C11.4726 25.1808 11.7552 24.8636 11.7552 24.4234C11.7488 24.0027 11.4726 23.6661 11.055 23.6661ZM18.6028 23.6467C18.2559 23.6467 18.0439 23.8732 17.9925 24.2098H19.2194C19.1616 23.8408 18.9368 23.6467 18.6028 23.6467ZM25.5274 23.6661C25.0906 23.6661 24.8273 24.0027 24.8273 24.4234C24.8273 24.8442 25.0906 25.1808 25.5274 25.1808C25.9642 25.1808 26.2469 24.8636 26.2469 24.4234C26.2469 24.0027 25.9642 23.6661 25.5274 23.6661ZM32.33 25.3556C32.33 25.375 32.3493 25.3879 32.3493 25.4268C32.3493 25.4462 32.33 25.4592 32.33 25.498C32.3108 25.5174 32.3108 25.5304 32.2979 25.5498C32.2786 25.5692 32.2658 25.5821 32.2273 25.5821C32.208 25.6016 32.1951 25.6016 32.1566 25.6016C32.1373 25.6016 32.1245 25.6016 32.0859 25.5821C32.0667 25.5821 32.0538 25.5627 32.0345 25.5498C32.0153 25.5304 32.0024 25.5174 32.0024 25.498C31.9832 25.4656 31.9832 25.4462 31.9832 25.4268C31.9832 25.3944 31.9832 25.375 32.0024 25.3556C32.0024 25.3232 32.0217 25.3038 32.0345 25.2844C32.0538 25.265 32.0667 25.265 32.0859 25.252C32.1181 25.2326 32.1373 25.2326 32.1566 25.2326C32.1887 25.2326 32.208 25.2326 32.2273 25.252C32.2594 25.2714 32.2786 25.2714 32.2979 25.2844C32.3172 25.2973 32.3108 25.3232 32.33 25.3556ZM32.1887 25.4462C32.2208 25.4462 32.2208 25.4268 32.2401 25.4268C32.2594 25.4074 32.2594 25.3944 32.2594 25.375C32.2594 25.3556 32.2594 25.3426 32.2401 25.3232C32.2208 25.3232 32.208 25.3038 32.1694 25.3038H32.0667V25.5304H32.1181V25.4397H32.1373L32.208 25.5304H32.2594L32.1887 25.4462ZM37 3.10714V25.8929C37 27.6083 35.6189 29 33.9167 29H3.08333C1.38108 29 0 27.6083 0 25.8929V3.10714C0 1.39174 1.38108 0 3.08333 0H33.9167C35.6189 0 37 1.39174 37 3.10714ZM4.11111 12.1438C4.11111 17.0958 8.10017 21.1092 13.0078 21.1092C14.755 21.1092 16.4701 20.5783 17.9219 19.6138C13.2391 15.7752 13.2712 8.5317 17.9219 4.69308C16.4701 3.7221 14.755 3.19777 13.0078 3.19777C8.10017 3.19129 4.11111 7.21116 4.11111 12.1438ZM18.5 19.1866C23.0286 15.6263 23.0094 8.68705 18.5 5.10737C13.9906 8.68705 13.9714 15.6328 18.5 19.1866ZM9.3592 24.1257C9.3592 23.5625 8.99306 23.1935 8.41493 23.1741C8.11944 23.1741 7.80469 23.2647 7.59271 23.5949C7.43854 23.3295 7.17517 23.1741 6.80903 23.1741C6.56493 23.1741 6.32083 23.2647 6.12813 23.5237V23.2388H5.60139V25.6145H6.12813C6.12813 24.3911 5.96754 23.6596 6.70625 23.6596C7.36146 23.6596 7.23299 24.3199 7.23299 25.6145H7.74045C7.74045 24.4299 7.57986 23.6596 8.31858 23.6596C8.97378 23.6596 8.84531 24.3069 8.84531 25.6145H9.37205V24.1257H9.3592ZM12.2434 23.2388H11.7359V23.5237C11.5625 23.31 11.3184 23.1741 10.9844 23.1741C10.3227 23.1741 9.81528 23.7049 9.81528 24.4234C9.81528 25.1484 10.3227 25.6728 10.9844 25.6728C11.3184 25.6728 11.5625 25.5498 11.7359 25.3232V25.621H12.2434V23.2388ZM14.845 24.896C14.845 23.925 13.374 24.3652 13.374 23.9121C13.374 23.5431 14.1384 23.6013 14.5623 23.8408L14.7743 23.4201C14.1705 23.0252 12.8344 23.0317 12.8344 23.9509C12.8344 24.8766 14.3054 24.4882 14.3054 24.9219C14.3054 25.3297 13.4382 25.2973 12.9757 24.9737L12.7509 25.3815C13.4703 25.8734 14.845 25.7699 14.845 24.896ZM17.1189 25.498L16.9776 25.0578C16.7335 25.1938 16.1939 25.3426 16.1939 24.7924V23.7179H17.0354V23.2388H16.1939V22.5138H15.6672V23.2388H15.179V23.7114H15.6672V24.7924C15.6672 25.9317 16.7785 25.7246 17.1189 25.498ZM17.9733 24.6306H19.7398C19.7398 23.5819 19.2644 23.1676 18.622 23.1676C17.9411 23.1676 17.453 23.679 17.453 24.417C17.453 25.744 18.9047 25.9641 19.6241 25.3362L19.38 24.9478C18.879 25.3621 18.121 25.3232 17.9733 24.6306ZM21.7696 23.2388C21.4741 23.1094 21.0245 23.1223 20.7932 23.5237V23.2388H20.2665V25.6145H20.7932V24.2746C20.7932 23.5237 21.4035 23.6208 21.6155 23.7308L21.7696 23.2388ZM22.4505 24.4234C22.4505 23.6855 23.1957 23.446 23.7802 23.8797L24.0243 23.4589C23.2792 22.8699 21.9238 23.1935 21.9238 24.4299C21.9238 25.7116 23.3627 25.9705 24.0243 25.4009L23.7802 24.9801C23.1892 25.4009 22.4505 25.1484 22.4505 24.4234ZM26.7351 23.2388H26.2083V23.5237C25.6752 22.8116 24.2877 23.2129 24.2877 24.4234C24.2877 25.6663 25.7266 26.0223 26.2083 25.3232V25.621H26.7351V23.2388ZM28.8998 23.2388C28.7457 23.1612 28.1932 23.0511 27.9234 23.5237V23.2388H27.416V25.6145H27.9234V24.2746C27.9234 23.5625 28.5016 23.6078 28.7457 23.7308L28.8998 23.2388ZM31.4885 22.2743H30.9811V23.5237C30.4543 22.8181 29.0604 23.1935 29.0604 24.4234C29.0604 25.6792 30.5057 26.0158 30.9811 25.3232V25.621H31.4885V22.2743ZM31.9767 17.4129V17.7107H32.0281V17.4129H32.1502V17.3612H31.8547V17.4129H31.9767ZM32.4007 25.4268C32.4007 25.3944 32.4007 25.3556 32.3814 25.3232C32.3622 25.3038 32.3493 25.2714 32.33 25.252C32.3108 25.2326 32.2786 25.2196 32.2594 25.2002C32.2273 25.2002 32.1887 25.1808 32.1566 25.1808C32.1373 25.1808 32.1052 25.2002 32.0667 25.2002C32.0345 25.2196 32.0153 25.2326 31.996 25.252C31.9639 25.2714 31.9446 25.3038 31.9446 25.3232C31.9253 25.3556 31.9253 25.3944 31.9253 25.4268C31.9253 25.4462 31.9253 25.4786 31.9446 25.5174C31.9446 25.5368 31.9639 25.5692 31.996 25.5886C32.0153 25.608 32.0281 25.621 32.0667 25.6404C32.0988 25.6598 32.1373 25.6598 32.1566 25.6598C32.1887 25.6598 32.2273 25.6598 32.2594 25.6404C32.2786 25.621 32.3108 25.608 32.33 25.5886C32.3493 25.5692 32.3622 25.5368 32.3814 25.5174C32.4007 25.4786 32.4007 25.4462 32.4007 25.4268ZM32.6063 17.3547H32.5163L32.4135 17.5812L32.3108 17.3547H32.2208V17.7042H32.2722V17.4388L32.375 17.6654H32.4457L32.5356 17.4388V17.7042H32.6063V17.3547ZM32.8889 12.1438C32.8889 7.21116 28.8998 3.19129 23.9922 3.19129C22.245 3.19129 20.5299 3.7221 19.0781 4.68661C23.7095 8.52522 23.7802 15.7882 19.0781 19.6074C20.5299 20.5783 22.2578 21.1027 23.9922 21.1027C28.8998 21.1092 32.8889 17.0958 32.8889 12.1438Z" fill="url(#paint0_linear_10_1492)"/>
<defs>
<linearGradient id="paint0_linear_10_1492" x1="18.5" y1="0" x2="18.5" y2="29" gradientUnits="userSpaceOnUse">
<stop offset="0.09375" stop-color="#B07908"/>
<stop offset="1" stop-color="#F4E377"/>
</linearGradient>
</defs>
</svg>
