<svg width="27" height="32" viewBox="0 0 27 32" fill="none" xmlns="http://www.w3.org/2000/svg">
<path d="M7.8288 18.8119C7.58265 20.1667 6.60508 26.482 6.31673 28.2673C6.29563 28.3943 6.2464 28.4437 6.10575 28.4437H0.859237C0.32474 28.4437 -0.0620671 27.978 0.00826149 27.4628L4.12951 1.22074C4.23501 0.543345 4.83983 0.0282406 5.53609 0.0282406C16.2471 0.0282406 17.1473 -0.23284 19.8831 0.83265C24.1099 2.47675 24.4967 6.44235 22.9776 10.7325C21.4655 15.1497 17.8787 17.0479 13.1245 17.1043C10.0723 17.1537 8.2367 16.6104 7.8288 18.8119ZM25.1085 8.658C24.9819 8.56627 24.9327 8.53099 24.8975 8.74974C24.7569 9.55415 24.5389 10.3374 24.2786 11.1206C21.4725 19.1506 13.6942 18.452 9.89646 18.452C9.46745 18.452 9.18614 18.6849 9.12987 19.1153C7.54045 29.0223 7.22397 31.0897 7.22397 31.0897C7.15364 31.5907 7.47012 32 7.96945 32H12.4353C13.0401 32 13.5395 31.5555 13.659 30.9486C13.7083 30.5676 13.5817 31.3791 14.6718 24.5063C14.9953 22.9539 15.6775 23.1162 16.7324 23.1162C21.7257 23.1162 25.6219 21.084 26.7823 15.1921C27.2395 12.7365 27.1059 10.1539 25.1085 8.658Z" fill="white"/>
<path d="M7.8288 18.8119C7.58265 20.1667 6.60508 26.482 6.31673 28.2673C6.29563 28.3943 6.2464 28.4437 6.10575 28.4437H0.859237C0.32474 28.4437 -0.0620671 27.978 0.00826149 27.4628L4.12951 1.22074C4.23501 0.543345 4.83983 0.0282406 5.53609 0.0282406C16.2471 0.0282406 17.1473 -0.23284 19.8831 0.83265C24.1099 2.47675 24.4967 6.44235 22.9776 10.7325C21.4655 15.1497 17.8787 17.0479 13.1245 17.1043C10.0723 17.1537 8.2367 16.6104 7.8288 18.8119ZM25.1085 8.658C24.9819 8.56627 24.9327 8.53099 24.8975 8.74974C24.7569 9.55415 24.5389 10.3374 24.2786 11.1206C21.4725 19.1506 13.6942 18.452 9.89646 18.452C9.46745 18.452 9.18614 18.6849 9.12987 19.1153C7.54045 29.0223 7.22397 31.0897 7.22397 31.0897C7.15364 31.5907 7.47012 32 7.96945 32H12.4353C13.0401 32 13.5395 31.5555 13.659 30.9486C13.7083 30.5676 13.5817 31.3791 14.6718 24.5063C14.9953 22.9539 15.6775 23.1162 16.7324 23.1162C21.7257 23.1162 25.6219 21.084 26.7823 15.1921C27.2395 12.7365 27.1059 10.1539 25.1085 8.658Z" fill="url(#paint0_linear_10_1493)"/>
<defs>
<linearGradient id="paint0_linear_10_1493" x1="13.5" y1="0" x2="13.5" y2="32" gradientUnits="userSpaceOnUse">
<stop offset="0.09375" stop-color="#B07908"/>
<stop offset="1" stop-color="#F4E377"/>
</linearGradient>
</defs>
</svg>
