<svg width="36" height="29" viewBox="0 0 36 29" fill="none" xmlns="http://www.w3.org/2000/svg">
<path d="M29.3813 12.9011C29.3813 12.9011 29.8562 15.3092 29.9625 15.8141H27.875C28.0812 15.2379 28.875 12.9982 28.875 12.9982C28.8625 13.0176 29.0812 12.4092 29.2062 12.0337L29.3813 12.9011ZM36 3.10714V25.8929C36 27.6083 34.6562 29 33 29H3C1.34375 29 0 27.6083 0 25.8929V3.10714C0 1.39174 1.34375 0 3 0H33C34.6562 0 36 1.39174 36 3.10714ZM9.53125 19.3679L13.4812 9.32143H10.825L8.36875 16.183L8.1 14.7913L7.225 10.1694C7.08125 9.52857 6.6375 9.34732 6.0875 9.32143H2.04375L2 9.5221C2.9875 9.78103 3.86875 10.1565 4.6375 10.629L6.875 19.3679H9.53125ZM15.4312 19.3808L17.0063 9.32143H14.4937L12.925 19.3808H15.4312ZM24.175 16.0924C24.1875 14.9467 23.5125 14.0728 22.0688 13.3542C21.1875 12.8946 20.65 12.5839 20.65 12.1114C20.6625 11.6842 21.1063 11.244 22.0938 11.244C22.9125 11.2246 23.5125 11.4252 23.9625 11.6259L24.1875 11.7359L24.5312 9.56094C24.0375 9.36027 23.25 9.13371 22.2812 9.13371C19.8 9.13371 18.0563 10.506 18.0438 12.4609C18.025 13.9045 19.2937 14.7071 20.2437 15.1926C21.2125 15.6846 21.5438 16.0083 21.5438 16.442C21.5312 17.1152 20.7563 17.4259 20.0375 17.4259C19.0375 17.4259 18.5 17.2641 17.6812 16.8886L17.35 16.7268L17 18.9859C17.5875 19.2643 18.675 19.5103 19.8 19.5232C22.4375 19.5297 24.1562 18.1768 24.175 16.0924ZM33 19.3808L30.975 9.32143H29.0312C28.4312 9.32143 27.975 9.50268 27.7188 10.1565L23.9875 19.3808H26.625C26.625 19.3808 27.0562 18.1379 27.15 17.8725H30.375C30.45 18.2286 30.675 19.3808 30.675 19.3808H33Z" fill="white"/>
<path d="M29.3813 12.9011C29.3813 12.9011 29.8562 15.3092 29.9625 15.8141H27.875C28.0812 15.2379 28.875 12.9982 28.875 12.9982C28.8625 13.0176 29.0812 12.4092 29.2062 12.0337L29.3813 12.9011ZM36 3.10714V25.8929C36 27.6083 34.6562 29 33 29H3C1.34375 29 0 27.6083 0 25.8929V3.10714C0 1.39174 1.34375 0 3 0H33C34.6562 0 36 1.39174 36 3.10714ZM9.53125 19.3679L13.4812 9.32143H10.825L8.36875 16.183L8.1 14.7913L7.225 10.1694C7.08125 9.52857 6.6375 9.34732 6.0875 9.32143H2.04375L2 9.5221C2.9875 9.78103 3.86875 10.1565 4.6375 10.629L6.875 19.3679H9.53125ZM15.4312 19.3808L17.0063 9.32143H14.4937L12.925 19.3808H15.4312ZM24.175 16.0924C24.1875 14.9467 23.5125 14.0728 22.0688 13.3542C21.1875 12.8946 20.65 12.5839 20.65 12.1114C20.6625 11.6842 21.1063 11.244 22.0938 11.244C22.9125 11.2246 23.5125 11.4252 23.9625 11.6259L24.1875 11.7359L24.5312 9.56094C24.0375 9.36027 23.25 9.13371 22.2812 9.13371C19.8 9.13371 18.0563 10.506 18.0438 12.4609C18.025 13.9045 19.2937 14.7071 20.2437 15.1926C21.2125 15.6846 21.5438 16.0083 21.5438 16.442C21.5312 17.1152 20.7563 17.4259 20.0375 17.4259C19.0375 17.4259 18.5 17.2641 17.6812 16.8886L17.35 16.7268L17 18.9859C17.5875 19.2643 18.675 19.5103 19.8 19.5232C22.4375 19.5297 24.1562 18.1768 24.175 16.0924ZM33 19.3808L30.975 9.32143H29.0312C28.4312 9.32143 27.975 9.50268 27.7188 10.1565L23.9875 19.3808H26.625C26.625 19.3808 27.0562 18.1379 27.15 17.8725H30.375C30.45 18.2286 30.675 19.3808 30.675 19.3808H33Z" fill="url(#paint0_linear_10_1491)"/>
<defs>
<linearGradient id="paint0_linear_10_1491" x1="18" y1="0" x2="18" y2="29" gradientUnits="userSpaceOnUse">
<stop offset="0.09375" stop-color="#B07908"/>
<stop offset="1" stop-color="#F4E377"/>
</linearGradient>
</defs>
</svg>
