<svg width="180" height="21" viewBox="0 0 180 21" fill="none" xmlns="http://www.w3.org/2000/svg">
<path d="M113.719 0.00262072C111.22 -0.0492433 108.796 0.668886 106.816 2.13916C105.237 3.31186 103.938 5.08813 103.283 6.97337C102.622 8.87134 102.533 11.2373 103.044 13.2644C103.717 15.9325 105.667 18.4299 108.074 19.7068C109.245 20.3278 110.479 20.7305 111.874 20.9462C112.137 20.987 112.988 21.0095 113.765 20.9962C115.307 20.9698 116.375 20.7842 117.918 20.2747C119.281 19.8247 121.018 18.8427 121.843 18.0552L122.196 17.7185V13.3103V8.90232H118.831H115.465L115.487 10.8486L115.509 12.7948L116.859 12.8174L118.209 12.8398V14.2583V15.6767L117.482 16.0158C116.448 16.4982 115.298 16.7827 114.138 16.8427C111.885 16.9591 110.685 16.4979 109.067 14.8932C108.305 14.1382 108.139 13.9218 107.802 13.2455C107.262 12.163 107.136 11.5643 107.18 10.2954C107.209 9.45668 107.257 9.1523 107.442 8.61551C107.737 7.7612 108.182 7.02842 108.829 6.33252C109.831 5.25474 110.87 4.61826 112.144 4.30242C112.747 4.1531 113.003 4.13415 113.889 4.17262C114.962 4.21919 115.757 4.35452 116.548 4.62557C117.093 4.81257 118.209 5.36075 118.649 5.65758C118.822 5.7746 118.981 5.87029 119.001 5.87029C119.057 5.87029 121.2 2.68825 121.2 2.60555C121.2 2.50398 120.416 2.00329 119.516 1.5292C117.653 0.549034 115.663 0.0429549 113.719 0.00262072ZM41.2206 0.541196L40.2204 3.2672C39.1531 6.17547 37.3996 10.9394 35.2272 16.8323C34.4917 18.8275 33.8898 20.4777 33.8898 20.4994C33.8898 20.521 34.9136 20.5387 36.165 20.5387H38.4403L38.9962 19.0432C39.3018 18.2207 39.6349 17.3264 39.7364 17.056L39.9207 16.5643L43.5303 16.5434L47.1399 16.5224L47.8775 18.5306L48.6151 20.5387H50.929H53.2429L52.9499 19.7398C52.7887 19.3003 51.6619 16.2488 50.446 12.9587C49.2301 9.66852 47.704 5.53841 47.0548 3.78065L45.8744 0.58473L43.5475 0.562963L41.2206 0.541196ZM59.1026 0.542176L57.2121 0.563463L55.3213 0.58476V10.5208C55.3213 15.9856 55.3223 20.4753 55.3223 20.4978C55.3227 20.5203 56.2759 20.5388 57.4408 20.5388H59.5592V14.7206C59.5592 11.5205 59.5872 8.90435 59.6215 8.90683C59.6558 8.90929 60.1137 9.47056 60.6392 10.1539C61.1646 10.8373 61.9651 11.8769 62.4181 12.4643C62.871 13.0517 64.454 15.1088 65.9357 17.0356L68.6297 20.5388H70.5326H72.4355L72.4474 16.0112C72.4541 13.5211 72.4544 10.8199 72.4483 10.0086C72.4423 9.19736 72.4368 6.73588 72.4368 4.53869L72.4359 0.543787H70.276H68.1161V6.36952V12.1953L67.7567 11.7575C67.559 11.5168 66.7779 10.5085 66.0209 9.51695C65.2639 8.5254 63.9583 6.82659 63.1197 5.74196C62.281 4.65732 61.0341 3.04377 60.3487 2.15614L59.1026 0.542176ZM131.127 0.542176L127.467 10.479C125.091 16.9308 123.838 20.4373 123.895 20.4768C123.943 20.5103 124.97 20.5288 126.177 20.5178L128.371 20.4978L129.097 18.5311L129.823 16.5644L133.435 16.5431L137.047 16.5216L137.78 18.5303L138.513 20.5388H140.822C142.092 20.5388 143.131 20.5258 143.131 20.5098C143.131 20.4939 142.501 18.7699 141.73 16.6788C140.96 14.5877 140.039 12.0839 139.685 11.1149C139.331 10.1459 138.724 8.50491 138.337 7.46828C137.951 6.43166 137.338 4.79067 136.976 3.82165C136.615 2.85264 136.196 1.72791 136.046 1.32228L135.773 0.58476L133.45 0.563463L131.127 0.542176ZM19.2274 0.543817C17.9709 0.543817 16.9429 0.565577 16.9429 0.592153C16.9429 0.618728 18.5548 5.01619 20.5249 10.3643C22.495 15.7124 24.1435 20.1895 24.1882 20.3135L24.2695 20.5388H26.61H28.9503L30.5016 16.339C31.3548 14.0292 32.9942 9.59482 34.1447 6.48495C35.2951 3.37508 36.2551 0.765528 36.2778 0.685933C36.3166 0.54973 36.183 0.54251 34.0063 0.563013L31.6935 0.58479L29.1608 7.44815C27.6833 11.4518 26.6026 14.267 26.5672 14.2046C26.5338 14.1457 26.0586 12.8826 25.5112 11.3976C24.9638 9.91257 23.8401 6.87624 23.014 4.65027C22.1879 2.4243 21.5119 0.589718 21.5119 0.573427C21.5119 0.557136 20.4838 0.543817 19.2274 0.543817ZM75.3433 0.543817V2.67346V4.80296L78.3962 4.82456L81.4491 4.84602V6.97663C81.4491 8.14847 81.4585 11.6793 81.4699 14.823L81.4907 20.5388H83.6921H85.8935V12.6719V4.80505H88.9672H92.0409V2.67443V0.543817H83.6921H75.3433ZM145.235 0.543817L145.184 4.85626C145.156 7.22814 145.156 11.7272 145.184 14.8542L145.235 20.5398L151.929 20.5188L158.624 20.4978L158.646 18.3883L158.669 16.279L154.077 16.2577L149.486 16.2366L149.46 15.1303C149.445 14.5219 149.458 13.6829 149.488 13.266L149.543 12.508H153.938H158.333V10.4904V8.4728L153.928 8.50321L149.524 8.53362L149.481 6.66997L149.438 4.80648L154.031 4.7852L158.624 4.76407L158.646 2.65394L158.669 0.543817H151.951H145.235ZM12 0.543817L9.67396 0.545788L7.34791 0.547508L6.11545 3.88492C5.43754 5.72048 4.68155 7.77545 4.43565 8.45152C4.18975 9.12758 3.85905 10.031 3.70065 10.4592C3.54224 10.8874 3.17165 11.9015 2.87722 12.7128C2.58277 13.524 1.95973 15.2203 1.49256 16.4823C1.0254 17.7442 0.498463 19.1737 0.321584 19.659L0 20.5411L2.29846 20.5193L4.59677 20.4975L5.12392 19.0635C5.41383 18.2747 5.74644 17.3805 5.86298 17.0763L6.07488 16.5231H9.67218H13.2696L13.6253 17.486C13.821 18.0156 14.153 18.9098 14.363 19.4732L14.745 20.4975L17.0545 20.5193L19.364 20.5412L19.3053 20.3554C19.2729 20.2533 18.1836 17.2934 16.8846 13.7779C15.5856 10.2624 13.9553 5.84657 13.2615 3.96494L12 0.543817ZM172.663 0.544637L170.337 0.546688L168.011 0.548899L166.164 5.56557C165.148 8.32478 164.087 11.2093 163.806 11.9755C163.525 12.7417 162.72 14.93 162.019 16.8385C161.317 18.747 160.742 20.3395 160.742 20.3771C160.742 20.4148 160.827 20.4619 160.929 20.4818C161.032 20.5016 162.049 20.5135 163.189 20.508L165.261 20.498L165.867 18.859C166.2 17.9576 166.532 17.0634 166.605 16.8718L166.737 16.5235H170.337H173.937L174.07 16.8718C174.143 17.0634 174.473 17.9576 174.804 18.859L175.405 20.498L177.719 20.5199C179.558 20.5372 180.027 20.5207 179.999 20.4379C179.979 20.3809 178.321 15.8815 176.313 10.4395L172.663 0.544637ZM133.442 6.8302L133.542 7.10837C133.597 7.26135 134.038 8.44908 134.523 9.7478C135.008 11.0465 135.405 12.1436 135.405 12.1857C135.405 12.2311 134.589 12.2624 133.402 12.2624C131.529 12.2624 131.404 12.2531 131.456 12.119C131.487 12.0401 131.831 11.1274 132.219 10.0908C132.607 9.05416 133.041 7.89643 133.184 7.5181L133.442 6.8302ZM170.367 6.85052C170.374 6.85052 170.379 6.85569 170.379 6.8667C170.379 6.88877 170.682 7.71535 171.051 8.70362C171.421 9.69188 171.869 10.8969 172.046 11.3814L172.368 12.2624H170.339H168.311L168.464 11.8322C168.857 10.7292 170.3 6.90474 170.337 6.86797C170.349 6.85658 170.359 6.85074 170.367 6.85052ZM9.6678 6.87726C9.67569 6.86755 9.86248 7.34694 10.0828 7.94257C10.3032 8.5382 10.6139 9.35736 10.7734 9.763C10.9329 10.1686 11.2077 10.8969 11.3839 11.3814L11.7044 12.2624H9.67153C8.55348 12.2624 7.63917 12.2532 7.63981 12.2419C7.64064 12.2306 7.86594 11.6314 8.141 10.9103C8.41606 10.1891 8.8689 8.99065 9.14729 8.24699C9.42569 7.50331 9.65988 6.88699 9.6678 6.87726ZM43.5155 6.91999C43.5616 6.86991 45.528 12.0446 45.5223 12.2009C45.5198 12.2676 41.5325 12.2885 41.5325 12.2219C41.5325 12.1411 43.4647 6.97528 43.5155 6.91999Z" fill="url(#paint0_linear_10_1245)"/>
<defs>
<linearGradient id="paint0_linear_10_1245" x1="90" y1="0" x2="90" y2="21" gradientUnits="userSpaceOnUse">
<stop offset="0.09375" stop-color="#B07908"/>
<stop offset="1" stop-color="#F4E377"/>
</linearGradient>
</defs>
</svg>
