<svg width="114" height="74" viewBox="0 0 114 74" fill="none" xmlns="http://www.w3.org/2000/svg">
<path d="M72.312 73.2938C59.8069 70.0049 60.0065 70.1952 60.0065 61.5652C60.0065 57.949 60.1449 54.9902 60.3142 54.9902C60.4834 54.9902 64.7378 56.224 69.7684 57.7318C80.8122 61.0419 82.7407 61.0156 94.522 57.3948C98.8139 56.0757 102.528 54.9951 102.776 54.9934C103.023 54.9916 103.226 58.0418 103.226 61.7714C103.226 69.9119 103.333 69.7651 95.7225 72.0454C89.2125 73.996 77.3807 74.6269 72.312 73.2938ZM3.04705 70.8923C0.00323219 69.2124 0.0237158 69.4463 0.00093773 36.0408C-0.0149434 13.0826 0.169009 4.42398 0.696761 3.27082C2.22087 -0.0600082 1.43955 7.28418e-05 43.2292 7.28418e-05H81.7363L83.7771 2.03235L85.818 4.06462V16.3777V28.6906H81.6162H77.4143V23.61V18.5294H42.8988H8.3835V40.9438V63.3583H31.1936H54.0039L54.0302 65.3009C54.0438 66.3694 54.4179 68.2521 54.8598 69.4849L55.6632 71.7263L30.0724 71.7061C9.98476 71.6903 4.17313 71.5145 3.04705 70.8931V70.8923ZM12.0245 11.3358C14.2735 10.1373 13.1212 6.57508 10.4844 6.57508C7.95656 6.57508 6.91344 9.20988 8.72649 11.0152C9.83263 12.1167 10.447 12.1764 12.0245 11.3358ZM20.646 11.0152C22.4591 9.20988 21.416 6.57508 18.8881 6.57508C15.2616 6.57508 15.367 11.8431 18.9955 11.9363C19.3846 11.9453 20.1274 11.5318 20.6462 11.0152H20.646ZM29.0949 10.7567C30.0045 9.75594 30.0684 9.30709 29.4838 8.02935C28.9091 6.7734 28.4359 6.53336 26.8374 6.68691C25.205 6.84369 24.8595 7.14495 24.6973 8.55372C24.3328 11.7191 27.004 13.0573 29.0949 10.7567ZM107.672 65.5997C107.883 64.8601 108.203 60.4431 108.383 55.7842L108.711 47.3135L102.817 49.0853C89.0541 53.2227 82.623 54.9902 81.333 54.9902C79.1479 54.9902 49.6377 46.1293 49.1371 45.3229C48.8885 44.9223 48.9112 44.1739 49.1875 43.6597C49.8312 42.4621 78.073 34.0702 81.4599 34.0702C83.9648 34.0702 111.924 42.065 113.28 43.169C114.473 44.1406 114.156 45.3955 112.53 46.1332C111.104 46.7802 111.029 47.0618 111.029 51.7988C111.029 54.9257 111.267 56.7834 111.668 56.7834C112.063 56.7834 112.27 58.2146 112.21 60.5191C112.156 62.5738 112.306 64.8601 112.541 65.5997C112.945 66.8651 112.802 66.9447 110.129 66.9447C107.469 66.9447 107.312 66.8587 107.672 65.5997ZM31.5606 50.4838C29.9466 48.0136 28.4141 45.8622 28.1551 45.7028C27.8961 45.5433 26.7828 45.9425 25.6812 46.5898C24.4994 47.2841 23.3606 47.5711 22.9037 47.29C22.4698 47.0229 21.369 42.7688 20.4001 37.6142C18.6774 28.4495 18.7147 26.8974 20.658 26.8974C21.6535 26.8974 36.1117 36.8157 36.7364 37.9272C37.2372 38.8183 36.7361 39.4478 33.9236 41.461C32.7928 42.2705 32.861 42.4653 35.8745 47.036C37.592 49.6408 38.9971 52.1735 38.9971 52.664C38.9971 54.009 37.7383 54.9911 36.0257 54.9825C34.7845 54.9757 33.9402 54.1256 31.5606 50.4838Z" fill="white"/>
</svg>
