<svg width="93" height="89" viewBox="0 0 93 89" fill="none" xmlns="http://www.w3.org/2000/svg">
<path d="M5.32372 88.5738C4.90557 88.3578 3.55137 86.9032 2.31435 85.3414C-1.10758 81.021 -0.660968 79.122 3.87665 78.6991C5.09067 78.586 18.5714 78.5294 33.8338 78.5735C54.8865 78.6344 61.7888 78.7656 62.4343 79.1172C63.2792 79.5775 63.9346 81.1409 63.7199 82.1844C63.5271 83.1222 58.9851 88.328 58.0516 88.6813C56.7601 89.17 6.27874 89.0671 5.32372 88.5737V88.5738ZM66.5895 77.7617C66.4957 77.6056 66.2945 72.6196 66.1424 66.6817C65.8724 56.139 65.8848 55.8502 66.6707 54.3907C68.0611 51.8086 67.5662 49.0489 64.6952 43.3756C63.2047 40.4304 59.501 35.6123 57.631 34.1858C55.113 32.2652 55.1186 32.2644 72.9875 32.2644H89.5234V54.7009C89.5234 71.6471 89.4118 77.2485 89.0672 77.5914C88.5525 78.1038 66.8939 78.2678 66.5895 77.7617ZM2.09258 75.6108C2.09258 73.7215 4.00259 71.269 6.44888 70.0172C9.59523 68.4072 15.1841 69.4047 16.804 71.8654L17.4112 72.7877L18.5899 71.6754C20.4599 69.9109 22.1301 69.2487 24.7105 69.2487C27.285 69.2487 28.9609 69.9109 30.8164 71.6612L31.9804 72.7593L32.9071 71.7712C35.9642 68.5114 41.8419 68.3683 45.0999 71.4743L46.1026 72.4302L47.839 71.1108C51.8332 68.0763 57.5016 68.6872 60.3959 72.4641C60.9411 73.1755 61.4955 74.2967 61.6279 74.9556L61.8686 76.1537H59.5309C57.4133 76.1537 57.1605 76.0682 56.8465 75.246C56.3397 73.9194 54.9769 73.1268 53.2023 73.1268C51.6109 73.1268 50.4026 73.9838 49.868 75.4916C49.6681 76.0552 49.129 76.1537 46.2461 76.1537C42.8763 76.1537 42.8569 76.1479 42.4078 75.0692C41.2623 72.3167 36.4034 72.4205 35.6993 75.2126C35.4679 76.1301 35.3748 76.1535 31.9869 76.1455L28.5119 76.137L27.9416 74.9155C26.7281 72.3158 22.3637 72.3797 21.3655 75.0116L20.9326 76.1533H17.4311C14.1394 76.1533 13.9224 76.1045 13.8082 75.3399C13.6289 74.14 11.8294 72.9699 10.2326 73.0149C8.80554 73.0551 7.23112 74.1832 6.82516 75.4563C6.6422 76.0301 6.20458 76.1533 4.34781 76.1533C2.64208 76.1533 2.09258 76.0209 2.09258 75.6103V75.6108ZM31.1946 66.7894L4.2268 66.6897L3.3455 65.8657C1.53477 64.1726 1.48941 60.4848 3.25772 58.7248C3.97196 58.0139 4.81812 57.9927 32.4188 57.9927C63.9114 57.9927 62.0481 57.8403 62.9257 60.487C63.4426 62.046 63.2198 63.6087 62.276 65.0423C61.6129 66.0495 59.5519 67.1515 58.6497 66.9812C58.3817 66.9306 46.0269 66.8444 31.1946 66.7895V66.7894ZM0.153205 52.1948C-0.172271 51.4838 -0.015106 50.7053 0.974167 48.1274C2.84861 43.243 4.92799 39.9599 8.14552 36.8048C20.3472 24.8397 43.4251 24.7301 55.7235 36.5788C58.7386 39.4836 60.2608 41.8176 62.1635 46.4529C63.8211 50.491 64.1167 52.1848 63.258 52.7259C62.9576 52.9151 49.1212 53.0649 31.6398 53.0682L0.555706 53.074L0.153205 52.1948ZM53.7908 28.4809C53.1202 27.8134 53.0305 27.2197 53.0305 23.4454C53.0305 20.614 53.1913 18.9515 53.5057 18.5304C53.9235 17.971 55.0575 17.8823 62.8977 17.796L71.8145 17.6978L72.8306 12.1161C73.3894 9.04608 74.0869 6.17389 74.3807 5.73352C74.7256 5.21648 77.236 4.01013 81.4674 2.32793C87.8027 -0.190669 88.0624 -0.25941 89.3002 0.255363C91.5291 1.18228 91.9284 4.18339 90.0422 5.83145C89.6523 6.17209 87.1084 7.31849 84.3891 8.37891L79.4449 10.3069L78.8012 13.7854C78.4471 15.6986 78.2445 17.4041 78.3509 17.5755C78.4574 17.7468 81.6074 17.8871 85.351 17.8871C91.6914 17.8871 92.1845 17.9371 92.5511 18.6188C92.7675 19.0213 92.9446 21.2348 92.9446 23.5375C92.9446 29.845 95.0706 29.2377 72.9875 29.2377C55.0579 29.2377 54.5302 29.217 53.7908 28.481V28.4809Z" fill="white"/>
</svg>
