<svg width="21" height="20" viewBox="0 0 21 20" fill="none" xmlns="http://www.w3.org/2000/svg">
<path d="M10.7245 4.66924C7.82374 4.66924 5.48397 6.86326 5.48397 9.58333C5.48397 12.3034 7.82374 14.4974 10.7245 14.4974C13.6253 14.4974 15.965 12.3034 15.965 9.58333C15.965 6.86326 13.6253 4.66924 10.7245 4.66924ZM10.7245 12.7781C8.84995 12.7781 7.31748 11.3454 7.31748 9.58333C7.31748 7.82127 8.84539 6.38853 10.7245 6.38853C12.6036 6.38853 14.1315 7.82127 14.1315 9.58333C14.1315 11.3454 12.5991 12.7781 10.7245 12.7781ZM17.4017 4.46823C17.4017 5.10548 16.8544 5.61442 16.1794 5.61442C15.4998 5.61442 14.9571 5.1012 14.9571 4.46823C14.9571 3.83526 15.5044 3.32204 16.1794 3.32204C16.8544 3.32204 17.4017 3.83526 17.4017 4.46823ZM20.8726 5.63153C20.7951 4.09615 20.4211 2.73611 19.2215 1.61558C18.0266 0.495044 16.5762 0.144343 14.9388 0.0673603C13.2513 -0.0224534 8.19318 -0.0224534 6.50563 0.0673603C4.87281 0.140067 3.42243 0.490768 2.2229 1.6113C1.02337 2.73183 0.653932 4.09187 0.571835 5.62725C0.476055 7.20969 0.476055 11.9527 0.571835 13.5351C0.649371 15.0705 1.02337 16.4306 2.2229 17.5511C3.42243 18.6716 4.86825 19.0223 6.50563 19.0993C8.19318 19.1891 13.2513 19.1891 14.9388 19.0993C16.5762 19.0266 18.0266 18.6759 19.2215 17.5511C20.4165 16.4306 20.7905 15.0705 20.8726 13.5351C20.9684 11.9527 20.9684 7.21396 20.8726 5.63153ZM18.6925 15.233C18.3367 16.0713 17.648 16.7171 16.7495 17.055C15.404 17.5554 12.2114 17.4399 10.7245 17.4399C9.23763 17.4399 6.04041 17.5511 4.69949 17.055C3.80555 16.7214 3.11684 16.0756 2.75653 15.233C2.2229 13.9714 2.34604 10.9776 2.34604 9.58333C2.34604 8.18908 2.22746 5.19102 2.75653 3.93363C3.11228 3.09536 3.80099 2.44956 4.69949 2.11169C6.04497 1.6113 9.23763 1.72677 10.7245 1.72677C12.2114 1.72677 15.4086 1.61558 16.7495 2.11169C17.6435 2.44528 18.3322 3.09109 18.6925 3.93363C19.2261 5.19529 19.103 8.18908 19.103 9.58333C19.103 10.9776 19.2261 13.9756 18.6925 15.233Z" fill="white"/>
</svg>
