<svg width="21" height="21" viewBox="0 0 21 21" fill="none" xmlns="http://www.w3.org/2000/svg">
<path d="M5.23459 20.4444H1.26093V6.79474H5.23459V20.4444ZM3.24562 4.93279C1.97497 4.93279 0.944336 3.81014 0.944336 2.45476C0.944336 1.80372 1.18679 1.17934 1.61837 0.718982C2.04994 0.258625 2.63528 0 3.24562 0C3.85596 0 4.4413 0.258625 4.87287 0.718982C5.30445 1.17934 5.5469 1.80372 5.5469 2.45476C5.5469 3.81014 4.51584 4.93279 3.24562 4.93279ZM20.1067 20.4444H16.1416V13.7999C16.1416 12.2163 16.1117 10.1855 14.0756 10.1855C12.0097 10.1855 11.6931 11.906 11.6931 13.6858V20.4444H7.72369V6.79474H11.5348V8.65668H11.5904C12.1209 7.58424 13.4168 6.45247 15.3501 6.45247C19.3717 6.45247 20.111 9.27733 20.111 12.9465V20.4444H20.1067Z" fill="white"/>
</svg>
