<svg width="23" height="21" viewBox="0 0 23 21" fill="none" xmlns="http://www.w3.org/2000/svg">
<path d="M5.23422 20.7576L4.94745 20.5152L4.91531 18.7471L4.88317 16.9789H4.23936C3.39986 16.9789 2.67861 16.8398 2.06766 16.5602C1.37254 16.242 0.572267 15.4075 0.280603 14.6966C0.0420849 14.1153 0.0414205 14.101 0.00967868 8.8362C-0.0235813 3.3192 0.0100616 2.75062 0.416162 1.96769C0.897485 1.03972 1.8721 0.320355 2.95441 0.0941951C3.36426 0.00855086 5.75923 -0.0146925 11.7953 0.0083949L20.0741 0.0400609L20.6513 0.269599C21.7509 0.706893 22.5761 1.65364 22.848 2.78974C23.0612 3.68089 23.0456 13.3964 22.8296 14.2184C22.5326 15.3486 21.6499 16.3204 20.5341 16.7458C20.1265 16.9011 19.552 16.925 15.4925 16.9557L10.9108 16.9903L8.46411 18.9952C6.76162 20.3902 5.94188 21 5.76918 21C5.63268 21 5.39195 20.8909 5.23422 20.7576L5.23422 20.7576ZM8.5247 16.8612C9.36791 16.1705 10.1583 15.5525 10.2811 15.4879C10.4416 15.4035 11.763 15.3703 14.9826 15.3699C17.7922 15.3695 19.6047 15.3301 19.8469 15.2639C20.3494 15.1267 20.927 14.6215 21.1611 14.1147C21.3333 13.7418 21.3474 13.3245 21.3495 8.52449C21.351 4.81407 21.3176 3.23991 21.2319 2.99548C21.0398 2.44777 20.7323 2.11267 20.1758 1.84489L19.6559 1.59472L11.3818 1.62162C3.2156 1.64814 3.10239 1.65126 2.69889 1.85852C2.47403 1.97402 2.15208 2.2606 1.98343 2.49536L1.67681 2.9222L1.64537 8.21646C1.62366 11.8664 1.64884 13.6283 1.72663 13.8894C1.87455 14.3862 2.39114 14.9545 2.90245 15.183C3.23193 15.3302 3.57822 15.3665 4.67104 15.3683C5.97609 15.3706 6.03987 15.3802 6.28081 15.6172C6.52186 15.8543 6.53168 15.916 6.53168 17.1929V18.5219L6.76165 18.3195C6.88813 18.2081 7.68151 17.5519 8.52472 16.8612L8.5247 16.8612ZM5.74511 9.84589C4.65794 9.1939 4.70901 7.6445 5.83669 7.06742C6.26994 6.8457 7.05642 6.88707 7.45157 7.15237C8.3913 7.78327 8.39798 9.17331 7.46428 9.79734C6.99615 10.1102 6.22229 10.1321 5.7451 9.84589H5.74511ZM10.6446 9.84202C9.64622 9.24333 9.64622 7.72539 10.6446 7.1267C11.0902 6.85948 11.8872 6.85948 12.3329 7.1267C12.8159 7.41641 13.0722 7.8869 13.0722 8.48436C13.0722 9.418 12.438 10.0418 11.4887 10.0418C11.1587 10.0418 10.8597 9.97103 10.6446 9.84202ZM15.5131 9.79735C14.2217 8.93426 14.8167 6.92619 16.3637 6.92619C17.7441 6.92619 18.479 8.26884 17.7213 9.40624C17.2838 10.0631 16.1984 10.2553 15.5131 9.79735Z" fill="white"/>
</svg>
