<svg width="76" height="74" viewBox="0 0 76 74" fill="none" xmlns="http://www.w3.org/2000/svg">
<path d="M13.1534 73.7974C10.606 73.4371 8.41174 72.6355 6.67262 71.4299C5.69464 70.7519 5.4652 70.3105 5.88543 69.9152C6.02593 69.7831 8.67463 68.6584 11.7713 67.4162C14.868 66.1739 17.5175 65.0557 17.6591 64.9311C18.1637 64.4876 18.3348 63.9765 18.2483 63.1721C18.0567 61.3919 16.1931 56.8815 14.7758 54.7681C14.1988 53.9077 13.6596 53.5552 12.92 53.5552C12.722 53.5552 9.96746 54.5942 6.79884 55.8642C3.63022 57.1341 0.953353 58.1731 0.850201 58.1731C0.746992 58.1731 0.566032 58.1371 0.44787 58.093C-0.0794925 57.8964 0.387753 55.3323 1.31185 53.3525C1.98391 51.9126 3.1926 50.249 4.42554 49.0666C11.5994 42.1868 22.5849 44.2527 27.4046 53.3879C28.7724 55.9804 29.4166 59.0917 29.1519 61.8261C28.5418 68.1268 23.6483 72.8344 16.7097 73.7954C14.9582 74.038 14.8545 74.038 13.1534 73.7972V73.7974ZM72.9615 73.781C72.3102 73.4398 67.5875 70.2522 66.6698 69.5346C66.0137 69.0214 65.633 68.3701 65.0803 66.8144L64.7053 65.7589L54.2668 55.5978L43.8282 45.4368L45.2901 44.0211L46.7519 42.6054L57.1385 52.6963L67.525 62.787L68.8171 63.2674C70.8564 64.0255 71.0435 64.1595 72.2028 65.691C74.3337 68.506 75.8974 70.8319 75.9762 71.3035C76.0499 71.7446 76.0003 71.8233 75.1191 72.6647C74.2375 73.5066 73.6025 74.0117 73.4406 73.9998C73.4012 73.9961 73.1856 73.8985 72.9615 73.781ZM30.9932 54.1701C30.0945 51.9057 28.715 49.6723 27.073 47.8234C25.5509 46.1095 22.8214 44.2183 20.5883 43.3303C19.9938 43.0939 19.4791 42.8729 19.4446 42.8394C19.4101 42.8059 20.1028 42.2416 20.9841 41.5855C28.7327 35.8165 36.0962 28.6853 42.48 20.7676C43.391 19.6376 44.1528 18.73 44.1729 18.7508C44.1928 18.7715 44.4329 19.3526 44.7061 20.0419C45.3007 21.5423 46.1318 23.0504 47.1054 24.396C48.0731 25.7335 50.1087 27.7483 51.4162 28.6628C52.5488 29.455 54.6911 30.5942 55.5392 30.8552L56.0443 31.0108L54.0452 32.5409C45.8966 38.7781 38.8872 45.6321 32.7811 53.3337L31.3684 55.1155L30.9932 54.1701ZM12.375 24.0991C1.57329 13.5835 0.797009 12.7976 0.451203 12.0259C-0.222478 10.5226 -0.134207 8.55563 0.665358 7.25472C1.07443 6.58918 6.56976 1.22877 7.22922 0.852016C7.98019 0.422967 9.25113 0.083838 10.0809 0.0910834C10.921 0.0984019 12.0713 0.409559 12.7632 0.816616C13.3095 1.13801 36.2237 23.1513 36.2237 23.3548C36.2237 23.5835 32.5814 27.3669 29.6842 30.1475C27.2317 32.5014 24.103 35.3469 23.9675 35.3469C23.9462 35.3469 18.7297 30.2854 12.375 24.0991ZM59.3801 28.878C58.2107 28.7025 56.4125 28.1367 55.3078 27.5967C53.8724 26.895 52.8463 26.1792 51.5858 25.0001C49.0112 22.5919 47.4426 19.8313 46.6782 16.3632C46.2867 14.5868 46.3431 11.5949 46.7992 9.9487C48.2204 4.8187 52.6011 1.18609 58.5652 0.191923C60.1951 -0.0797773 61.2681 -0.0655143 62.9794 0.250774C64.8491 0.596337 65.9058 0.929396 67.3931 1.64198C69.5342 2.6678 70.3873 3.63274 69.5974 4.1355C69.4279 4.24345 66.8517 5.3127 63.8725 6.51155C60.8933 7.71041 58.3095 8.78442 58.1305 8.89831C57.6799 9.18516 57.276 9.87058 57.2754 10.3497C57.2735 11.8488 59.0111 16.2646 60.6354 18.8888C61.3598 20.0591 62.0725 20.5339 62.8817 20.3853C63.122 20.3412 65.091 19.589 67.2572 18.7138C75.1656 15.5186 75.104 15.5387 75.3164 16.0966C75.584 16.7993 74.9004 19.4582 74.0136 21.1635C72.0856 24.8715 68.3464 27.7377 64.2015 28.6847C63.1044 28.9353 60.4669 29.0411 59.3801 28.878Z" fill="white"/>
</svg>
