<svg width="23" height="21" viewBox="0 0 23 21" fill="none" xmlns="http://www.w3.org/2000/svg">
<path fill-rule="evenodd" clip-rule="evenodd" d="M3.14909 2.40831C3.0468 2.4006 2.90689 2.40001 2.65422 2.40001H0.999976C0.502919 2.40001 0.0999756 1.99707 0.0999756 1.50001C0.0999756 1.00295 0.502919 0.600011 0.999976 0.600011H2.65422L2.68065 0.600008H2.68073C2.89705 0.599987 3.10609 0.599967 3.28433 0.613398C3.48114 0.628227 3.70392 0.662679 3.9329 0.764818C4.2586 0.910107 4.53684 1.14413 4.73579 1.44013C4.87565 1.64822 4.94777 1.8618 4.9961 2.05316C5.03987 2.22649 5.07568 2.43247 5.11272 2.64562L5.11725 2.67166L5.36951 4.12214L18.4275 4.50867L18.462 4.50969C18.9747 4.52485 19.4118 4.53778 19.7707 4.57731C20.1483 4.61889 20.5145 4.69629 20.8635 4.88224C21.398 5.16696 21.8299 5.61184 22.0986 6.15447C22.2742 6.50886 22.3407 6.87718 22.3711 7.25579C22.4 7.61569 22.4 8.05306 22.4 8.5659V8.60051V8.63368V8.63379C22.4 9.11575 22.4 9.52821 22.3735 9.86913C22.3454 10.2289 22.2841 10.5787 22.1238 10.9193C21.8773 11.4431 21.4796 11.881 20.9821 12.1769C20.6585 12.3693 20.3162 12.464 19.9608 12.5265C19.624 12.5858 19.2135 12.6255 18.7337 12.6719L18.7007 12.6751L9.03931 13.6101L9.00572 13.6133L9.00565 13.6133C8.51391 13.6609 8.09353 13.7016 7.74393 13.7078C7.37536 13.7143 7.01356 13.6854 6.65274 13.5529C6.10602 13.352 5.63244 12.9912 5.29369 12.5174C5.07011 12.2047 4.94625 11.8636 4.85466 11.5065C4.7678 11.1678 4.69544 10.7517 4.61081 10.265L4.60501 10.2317L3.72198 5.15422L3.34387 2.98007C3.30058 2.73114 3.27602 2.59339 3.2509 2.49394C3.24314 2.46321 3.23713 2.44404 3.23349 2.43343C3.22714 2.42631 3.2198 2.42014 3.21169 2.4151C3.20061 2.41332 3.1807 2.41069 3.14909 2.40831ZM5.68431 5.93224L6.37839 9.92324C6.47043 10.4524 6.53115 10.7978 6.59823 11.0593C6.66256 11.3101 6.71616 11.4121 6.75792 11.4705C6.88641 11.6502 7.06605 11.7871 7.27342 11.8633C7.34082 11.888 7.45336 11.9126 7.71227 11.9081C7.98222 11.9033 8.33129 11.8702 8.86593 11.8185L18.5273 10.8835C19.0491 10.833 19.3893 10.7994 19.6489 10.7538C19.8975 10.71 20.0013 10.6659 20.0621 10.6297C20.2509 10.5175 20.4017 10.3514 20.4952 10.1527C20.5254 10.0887 20.5593 9.98108 20.5789 9.72939C20.5993 9.46668 20.6 9.12483 20.6 8.60051C20.6 8.04363 20.5993 7.67908 20.5769 7.39982C20.5553 7.13121 20.518 7.01859 20.4857 6.95343C20.3837 6.74761 20.2199 6.57886 20.0172 6.47086C19.953 6.43667 19.8415 6.39599 19.5737 6.36649C19.2952 6.33582 18.9308 6.32436 18.3742 6.30788L5.68431 5.93224ZM8.49998 16.9C7.89246 16.9 7.39998 17.3925 7.39998 18C7.39998 18.6075 7.89246 19.1 8.49998 19.1C9.10749 19.1 9.59998 18.6075 9.59998 18C9.59998 17.3925 9.10749 16.9 8.49998 16.9ZM5.59998 18C5.59998 16.3984 6.89835 15.1 8.49998 15.1C10.1016 15.1 11.4 16.3984 11.4 18C11.4 19.6016 10.1016 20.9 8.49998 20.9C6.89835 20.9 5.59998 19.6016 5.59998 18ZM16.9 18C16.9 17.3925 17.3925 16.9 18 16.9C18.6075 16.9 19.1 17.3925 19.1 18C19.1 18.6075 18.6075 19.1 18 19.1C17.3925 19.1 16.9 18.6075 16.9 18ZM18 15.1C16.3983 15.1 15.1 16.3984 15.1 18C15.1 19.6016 16.3983 20.9 18 20.9C19.6016 20.9 20.9 19.6016 20.9 18C20.9 16.3984 19.6016 15.1 18 15.1Z" fill="white"/>
</svg>
