<svg width="15" height="17" viewBox="0 0 15 17" fill="none" xmlns="http://www.w3.org/2000/svg">
<path d="M4.7314 16.9751C2.41114 16.6234 0.609082 14.9422 0.135534 12.6876C-0.0451778 11.8272 -0.0451778 11.3974 0.135534 10.537C0.621113 8.22506 2.49941 6.53408 4.90784 6.24061C5.22003 6.20257 5.64911 6.20079 5.86134 6.23664L6.24719 6.30179V7.69086V9.07991L5.6073 9.03918C4.53493 8.97093 3.58547 9.49603 3.08797 10.4325C2.80979 10.9562 2.78724 12.2306 3.04766 12.7107C3.5382 13.6151 4.26495 14.1019 5.24172 14.1803C6.3298 14.2676 7.30884 13.6912 7.7774 12.6876L8.00557 12.1988L8.00669 6.0994L8.0078 0L8.66791 0.0623073C9.03097 0.0965941 9.6439 0.124952 10.03 0.125336L10.7319 0.12608L10.8019 0.688154C10.898 1.46043 11.1764 2.22875 11.5812 2.83899C12.1753 3.73451 13.013 4.18204 14.3409 4.31328L15 4.37843V5.84476V7.31109L14.3154 7.28175C13.3819 7.24174 12.5136 7.01876 11.5474 6.57098L10.7353 6.19458L10.7511 9.39224C10.766 12.392 10.7545 12.6296 10.5623 13.2323C10.0486 14.8451 8.64477 16.2539 7.06542 16.7415C6.43548 16.936 5.25379 17.0543 4.73168 16.9751L4.7314 16.9751Z" fill="white"/>
</svg>
