<svg width="27" height="20" viewBox="0 0 27 20" fill="none" xmlns="http://www.w3.org/2000/svg">
<path d="M26.384 2.99893C26.0753 1.81849 25.1661 0.888804 24.0116 0.573303C21.919 0 13.528 0 13.528 0C13.528 0 5.13702 0 3.04439 0.573303C1.8899 0.888854 0.980642 1.81849 0.672037 2.99893C0.111328 5.13856 0.111328 9.6027 0.111328 9.6027C0.111328 9.6027 0.111328 14.0668 0.672037 16.2065C0.980642 17.3869 1.8899 18.2779 3.04439 18.5934C5.13702 19.1667 13.528 19.1667 13.528 19.1667C13.528 19.1667 21.919 19.1667 24.0116 18.5934C25.1661 18.2779 26.0753 17.3869 26.384 16.2065C26.9447 14.0668 26.9447 9.6027 26.9447 9.6027C26.9447 9.6027 26.9447 5.13856 26.384 2.99893ZM10.7837 13.6558V5.5496L17.7969 9.6028L10.7837 13.6558Z" fill="white"/>
</svg>
